<?xml version="1.0" encoding="iso-8859-1"?>
<!-- Generator: Adobe Illustrator 18.0.0, SVG Export Plug-In . SVG Version: 6.00 Build 0)  -->
<!DOCTYPE svg PUBLIC "-//W3C//DTD SVG 1.1//EN" "http://www.w3.org/Graphics/SVG/1.1/DTD/svg11.dtd">
<svg version="1.1" id="Capa_1" xmlns="http://www.w3.org/2000/svg" xmlns:xlink="http://www.w3.org/1999/xlink" x="0px" y="0px"
	 viewBox="0 0 75.461 75.461" style="enable-background:new 0 0 75.461 75.461;" xml:space="preserve">
<path style="fill:#231F20;" d="M21.725,17.496c0.019-0.627,0.075-2.536,1.457-3.058c1.366-0.516,2.747,0.862,3.01,1.144
	c0.377,0.404,0.356,1.037-0.047,1.414c-0.403,0.377-1.036,0.356-1.414-0.047c-0.243-0.257-0.605-0.518-0.815-0.599
	c-0.064,0.141-0.17,0.481-0.192,1.206c-0.096,3.279,2.439,4.162,2.465,4.171c0.316,0.105,0.559,0.361,0.648,0.682l0.042,0.15
	c0.017,0.06,0.027,0.121,0.033,0.183c0.727,8.67,7.575,11.475,10.777,11.475c3.203,0,10.051-2.805,10.778-11.475
	c0.005-0.061,0.016-0.122,0.032-0.18l0.041-0.15c0.088-0.323,0.332-0.58,0.648-0.685c0.097-0.034,2.56-0.939,2.465-4.171
	c-0.021-0.725-0.128-1.065-0.192-1.206c-0.222,0.086-0.603,0.372-0.815,0.599c-0.377,0.404-1.01,0.425-1.414,0.047
	c-0.403-0.377-0.424-1.01-0.047-1.414c0.263-0.281,1.644-1.659,3.011-1.144c1.382,0.522,1.438,2.431,1.457,3.058
	c0.097,3.3-1.829,5.145-3.237,5.872c-0.967,8.856-7.969,12.848-12.727,12.848S25.93,32.225,24.962,23.369
	C23.554,22.641,21.628,20.797,21.725,17.496z M26.159,14.542c0.002,0,0.003,0,0.005,0c0.55,0,0.998-0.445,1-0.995
	c0.009-1.897,0.595-3.634,1.651-4.89c0.355-0.423,0.301-1.054-0.122-1.409c-0.423-0.354-1.054-0.3-1.409,0.122
	c-1.356,1.613-2.109,3.804-2.12,6.167C25.161,14.09,25.606,14.54,26.159,14.542z M30.702,6.747h11.017c0.552,0,1-0.448,1-1
	s-0.448-1-1-1H30.702c-0.552,0-1,0.448-1,1S30.15,6.747,30.702,6.747z M31.956,3.821h10.403c0.289,0.015,6.816,0.009,7.593,6.658
	c0.06,0.509,0.492,0.884,0.992,0.884c0.039,0,0.078-0.002,0.118-0.007c0.548-0.064,0.941-0.561,0.877-1.109
	c-0.791-6.771-6.64-8.453-9.592-8.426h-10.39c-0.552,0-1,0.448-1,1S31.404,3.821,31.956,3.821z M15.763,42.621
	c0-1.815,1.477-3.292,3.292-3.292s3.292,1.477,3.292,3.292s-1.477,3.292-3.292,3.292S15.763,44.437,15.763,42.621z M17.763,42.621
	c0,0.712,0.58,1.292,1.292,1.292c0.713,0,1.292-0.58,1.292-1.292c0-0.713-0.58-1.292-1.292-1.292
	C18.342,41.329,17.763,41.908,17.763,42.621z M26.088,37.614v34.208c0,0.552-0.448,1-1,1H13.022c-0.552,0-1-0.448-1-1V37.614
	c0-0.552,0.448-1,1-1h0.679c3.456-3.16,7.489-5.646,11.075-6.823c0.527-0.171,1.09,0.114,1.262,0.639
	c0.172,0.524-0.114,1.089-0.639,1.262c-2.751,0.903-5.801,2.661-8.615,4.923h8.304C25.64,36.614,26.088,37.061,26.088,37.614z
	 M24.088,38.614H14.022v32.208h10.066V38.614z M17.606,48.163c-0.552,0-1,0.448-1,1v19.22c0,0.552,0.448,1,1,1s1-0.448,1-1v-19.22
	C18.606,48.611,18.159,48.163,17.606,48.163z M20.428,48.163c-0.552,0-1,0.448-1,1v19.22c0,0.552,0.448,1,1,1s1-0.448,1-1v-19.22
	C21.428,48.611,20.98,48.163,20.428,48.163z M52.576,65.789c0-1.815,1.477-3.292,3.292-3.292s3.292,1.477,3.292,3.292
	c0,1.815-1.477,3.292-3.292,3.292S52.576,67.604,52.576,65.789z M54.576,65.789c0,0.713,0.58,1.292,1.292,1.292
	c0.712,0,1.292-0.58,1.292-1.292s-0.58-1.292-1.292-1.292C55.155,64.496,54.576,65.076,54.576,65.789z M63.48,59.756v12.066
	c0,0.552-0.448,1-1,1H28.272c-0.552,0-1-0.448-1-1V59.756c0-0.552,0.448-1,1-1H62.48C63.033,58.756,63.48,59.204,63.48,59.756z
	 M61.48,60.756H29.272v10.066H61.48V60.756z M31.71,65.341h19.22c0.552,0,1-0.448,1-1c0-0.552-0.448-1-1-1H31.71
	c-0.552,0-1,0.448-1,1C30.71,64.893,31.158,65.341,31.71,65.341z M31.71,68.162h19.22c0.552,0,1-0.448,1-1s-0.448-1-1-1H31.71
	c-0.552,0-1,0.448-1,1S31.158,68.162,31.71,68.162z M62.014,47.016c0,0.552-0.448,1-1,1c-0.007,0-0.013-0.001-0.02,0H28.759
	c-0.349,0-0.672-0.182-0.854-0.479s-0.195-0.668-0.036-0.978l4.518-8.791c0.171-0.333,0.515-0.543,0.89-0.543h23.2
	c0.375,0,0.718,0.209,0.889,0.543l4.437,8.631C61.935,46.57,62.014,46.784,62.014,47.016z M59.356,46.016l-3.49-6.791H33.887
	l-3.49,6.791H59.356z M60.994,48.967H28.759c-0.552,0-1,0.448-1,1s0.448,1,1,1h32.235c0.552,0,1-0.448,1-1
	S61.547,48.967,60.994,48.967z M60.994,51.918H28.759c-0.552,0-1,0.448-1,1s0.448,1,1,1h32.235c0.552,0,1-0.448,1-1
	S61.547,51.918,60.994,51.918z M60.994,54.868H28.759c-0.552,0-1,0.448-1,1s0.448,1,1,1h32.235c0.552,0,1-0.448,1-1
	S61.547,54.868,60.994,54.868z M49.342,30.428c-0.172,0.525,0.114,1.09,0.638,1.262c9.432,3.095,16.693,11.488,18.5,21.382
	c0.088,0.482,0.509,0.82,0.983,0.82c0.06,0,0.12-0.005,0.181-0.016c0.543-0.099,0.903-0.62,0.804-1.164
	c-1.937-10.605-9.726-19.603-19.844-22.923C50.076,29.616,49.514,29.905,49.342,30.428z M10.528,41.788
	c-0.463-0.298-1.083-0.163-1.381,0.304c-2.083,3.255-3.54,6.929-4.215,10.622c-0.099,0.543,0.261,1.064,0.804,1.164
	c0.061,0.011,0.121,0.016,0.181,0.016c0.474,0,0.895-0.338,0.983-0.82c0.629-3.44,1.989-6.865,3.932-9.904
	C11.129,42.704,10.993,42.085,10.528,41.788z M9.727,56.878c1.194,1.201,1.185,2.886,1.177,4.373l-0.001,6.94
	c0,3.005-2.445,5.45-5.45,5.45c-3.005,0-5.45-2.445-5.45-5.45l-0.001-6.94c-0.008-1.487-0.017-3.172,1.177-4.373
	c0.893-0.897,2.291-1.334,4.274-1.334C7.436,55.544,8.834,55.98,9.727,56.878z M8.598,69.593H6.561c-0.552,0-1-0.448-1-1
	s0.448-1,1-1h2.341l0-1.688H6.561c-0.552,0-1-0.448-1-1s0.448-1,1-1h2.342l0-1.821H6.561c-0.552,0-1-0.448-1-1s0.448-1,1-1h2.325
	c-0.041-0.741-0.171-1.387-0.577-1.795c-0.491-0.494-1.453-0.745-2.856-0.745s-2.365,0.25-2.856,0.745
	C1.989,58.9,1.995,60.036,2.001,61.24l0.001,6.951c0,1.902,1.547,3.45,3.45,3.45C6.855,71.64,8.059,70.797,8.598,69.593z
	 M75.459,61.251l-0.001,6.94c0,3.005-2.445,5.45-5.45,5.45s-5.45-2.445-5.45-5.45l-0.001-6.94c-0.008-1.487-0.017-3.172,1.177-4.373
	c0.893-0.898,2.291-1.334,4.274-1.334s3.381,0.437,4.274,1.334C75.476,58.079,75.467,59.764,75.459,61.251z M72.864,58.288
	c-0.491-0.494-1.453-0.745-2.856-0.745s-2.365,0.25-2.856,0.745c-0.406,0.409-0.536,1.054-0.577,1.795h2.325c0.552,0,1,0.448,1,1
	s-0.448,1-1,1h-2.343l0,1.821h2.343c0.552,0,1,0.448,1,1s-0.448,1-1,1h-2.342l0,1.688h2.342c0.552,0,1,0.448,1,1s-0.448,1-1,1
	h-2.037c0.539,1.204,1.743,2.047,3.146,2.047c1.902,0,3.45-1.547,3.45-3.45l0.001-6.951C73.466,60.036,73.472,58.9,72.864,58.288z
	 M37.803,17.933v5.25h-1.228c-0.552,0-1,0.448-1,1s0.448,1,1,1h2.228c0.552,0,1-0.448,1-1v-6.25c0-0.552-0.448-1-1-1
	S37.803,17.381,37.803,17.933z"/>
<g>
</g>
<g>
</g>
<g>
</g>
<g>
</g>
<g>
</g>
<g>
</g>
<g>
</g>
<g>
</g>
<g>
</g>
<g>
</g>
<g>
</g>
<g>
</g>
<g>
</g>
<g>
</g>
<g>
</g>
</svg>
