<?xml version="1.0" encoding="iso-8859-1"?>
<!-- Generator: Adobe Illustrator 18.0.0, SVG Export Plug-In . SVG Version: 6.00 Build 0)  -->
<!DOCTYPE svg PUBLIC "-//W3C//DTD SVG 1.1//EN" "http://www.w3.org/Graphics/SVG/1.1/DTD/svg11.dtd">
<svg version="1.1" id="Capa_1" xmlns="http://www.w3.org/2000/svg" xmlns:xlink="http://www.w3.org/1999/xlink" x="0px" y="0px"
	 viewBox="0 0 73.683 73.683" style="enable-background:new 0 0 73.683 73.683;" xml:space="preserve">
<path style="fill:#231F20;" d="M18.693,27.245c1.354,12.71,11.357,18.436,18.149,18.436s16.795-5.726,18.149-18.436
	c1.964-1,4.861-3.693,4.721-8.449c-0.024-0.84-0.1-3.396-1.831-4.05c-0.895-0.338-1.819-0.003-2.55,0.448
	C53.123,6.721,45.51,0.438,36.845,0.438c-0.001,0-0.003,0-0.005,0c-8.664,0-16.278,6.283-18.486,14.756
	c-0.731-0.451-1.655-0.787-2.55-0.448c-1.731,0.654-1.806,3.21-1.831,4.05C13.832,23.552,16.728,26.245,18.693,27.245z
	 M16.509,16.617c0.221-0.081,0.861,0.268,1.408,0.744c-0.037,0.258-0.09,0.51-0.117,0.771c-0.057,0.549,0.342,1.041,0.891,1.098
	c0.539,0.053,1.041-0.341,1.098-0.891c0.93-8.917,8.418-15.901,17.05-15.901c0.001-0.001,0.003,0,0.005,0
	c8.631,0,16.12,6.984,17.05,15.901c0.054,0.514,0.488,0.896,0.993,0.896c0.035,0,0.07-0.002,0.105-0.005
	c0.549-0.057,0.948-0.549,0.891-1.098c-0.027-0.261-0.08-0.513-0.117-0.771c0.547-0.476,1.183-0.825,1.408-0.743
	c0.124,0.047,0.489,0.56,0.538,2.238c0.15,5.113-3.847,6.715-4.013,6.779c-0.362,0.135-0.614,0.468-0.646,0.853
	c-1.09,12.991-11.393,17.194-16.212,17.194S21.72,39.478,20.63,26.487c-0.032-0.382-0.284-0.713-0.642-0.852
	c-0.17-0.065-4.167-1.667-4.017-6.78C16.02,17.176,16.386,16.664,16.509,16.617z M36.842,51.882c-0.719,0-4.001-0.884-4.001-4.451
	h4.001h4.001C40.842,50.998,37.56,51.882,36.842,51.882z M30.288,58.951c0,0,3.346-6.595,3.669-7.069
	c1.55,1.061,2.506,1.205,2.884,1.205s1.333-0.144,2.884-1.205c0.323,0.475,3.669,7.069,3.669,7.069
	C39.528,61.945,34.156,61.945,30.288,58.951z M29.148,28.27c2.125,0,3.817-0.687,5.027-2.042c0.629-0.705,1.055-1.521,1.347-2.343
	h2.637c0.292,0.822,0.718,1.638,1.347,2.343c1.21,1.355,2.902,2.042,5.027,2.042c2.082,0,3.75-0.676,4.96-2.01
	c2.394-2.641,2.005-6.893,1.988-7.073c-0.05-0.512-0.481-0.902-0.995-0.902h-9.407h-2.478H35.08h-2h-9.884
	c-0.514,0-0.945,0.39-0.995,0.902c-0.018,0.18-0.406,4.433,1.988,7.073C25.398,27.593,27.066,28.27,29.148,28.27z M36.002,21.884
	c0.083-0.604,0.113-1.154,0.116-1.6h1.446c0.003,0.446,0.033,0.996,0.116,1.6H36.002z M41.081,20.284h8.431
	c-0.028,1.187-0.268,3.279-1.504,4.638c-0.825,0.907-1.961,1.348-3.473,1.348c-1.55,0-2.705-0.448-3.531-1.369
	c-1.219-1.359-1.428-3.44-1.439-4.616H41.081z M33.079,20.284h1.044c-0.014,1.293-0.291,3.324-1.439,4.61
	c-0.826,0.925-1.983,1.375-3.536,1.375c-1.512,0-2.647-0.441-3.473-1.348c-1.236-1.359-1.476-3.451-1.504-4.638H33.079z
	 M30.346,48.571l-6.535,2.967c-0.132,0.06-0.273,0.089-0.414,0.089c-0.185,0-0.368-0.051-0.529-0.151
	c-0.284-0.177-0.46-0.485-0.47-0.819l-0.267-9.139c-0.016-0.552,0.418-1.013,0.97-1.029c0.578-0.02,1.013,0.418,1.029,0.97
	l0.223,7.636l5.166-2.346c0.504-0.228,1.096-0.006,1.324,0.497S30.849,48.342,30.346,48.571z M49.872,51.538l-6.535-2.967
	c-0.503-0.229-0.725-0.821-0.497-1.324c0.228-0.503,0.82-0.726,1.324-0.497l5.166,2.346l0.223-7.636
	c0.016-0.552,0.458-0.993,1.029-0.97c0.552,0.016,0.986,0.477,0.97,1.029l-0.267,9.139c-0.01,0.334-0.186,0.642-0.47,0.819
	c-0.161,0.101-0.345,0.151-0.529,0.151C50.145,51.628,50.004,51.598,49.872,51.538z M73.683,72.244
	c0.034,1.093-1.059,0.999-1.17,0.999c-3.835-0.001-71.5-0.022-71.5-0.022s-1-0.009-1.013-0.977
	c-0.004-11.915,6.591-22.147,17.643-27.371c0.498-0.233,1.096-0.022,1.332,0.477c0.036,0.076,3.419,18.924,17.867,18.924
	c14.448,0,17.835-18.856,17.867-18.924c0.236-0.5,0.833-0.711,1.332-0.477C67.092,50.097,73.687,60.329,73.683,72.244z"/>
<g>
</g>
<g>
</g>
<g>
</g>
<g>
</g>
<g>
</g>
<g>
</g>
<g>
</g>
<g>
</g>
<g>
</g>
<g>
</g>
<g>
</g>
<g>
</g>
<g>
</g>
<g>
</g>
<g>
</g>
</svg>
