<?xml version="1.0" encoding="iso-8859-1"?>
<!-- Generator: Adobe Illustrator 18.0.0, SVG Export Plug-In . SVG Version: 6.00 Build 0)  -->
<!DOCTYPE svg PUBLIC "-//W3C//DTD SVG 1.1//EN" "http://www.w3.org/Graphics/SVG/1.1/DTD/svg11.dtd">
<svg version="1.1" id="Capa_1" xmlns="http://www.w3.org/2000/svg" xmlns:xlink="http://www.w3.org/1999/xlink" x="0px" y="0px"
	 viewBox="0 0 72.333 72.333" style="enable-background:new 0 0 72.333 72.333;" xml:space="preserve">
<path style="fill:#231F20;" d="M13.667,66.75c0,1.275-0.273,2.504-0.813,3.652c-0.171,0.362-0.53,0.575-0.906,0.575
	c-0.143,0-0.287-0.03-0.424-0.095c-0.5-0.235-0.715-0.831-0.48-1.331c0.413-0.879,0.623-1.822,0.623-2.801
	c0-3.631-2.954-6.585-6.586-6.585c-1.222,0-2.414,0.337-3.448,0.974c-0.47,0.289-1.087,0.142-1.376-0.327
	c-0.289-0.47-0.143-1.086,0.327-1.376c1.35-0.831,2.905-1.271,4.497-1.271C9.815,58.165,13.667,62.016,13.667,66.75z M37.167,56.529
	c0.553,0,1-0.448,1-1s-0.447-1-1-1H17.192c-0.101,0-0.192,0.03-0.284,0.057c-3.061-2.977-7.23-4.819-11.827-4.819
	c-1.429,0-2.848,0.178-4.219,0.528c-0.535,0.137-0.857,0.682-0.721,1.216c0.137,0.536,0.683,0.86,1.217,0.721
	c1.208-0.309,2.461-0.466,3.723-0.466c8.263,0,14.984,6.722,14.984,14.983c0,1.016-0.103,2.032-0.305,3.021
	c-0.111,0.542,0.238,1.07,0.779,1.18c0.067,0.014,0.135,0.021,0.201,0.021c0.465,0,0.882-0.326,0.979-0.799
	c0.229-1.121,0.346-2.272,0.346-3.422c0-3.84-1.296-7.374-3.453-10.222H37.167z M72.333,26.232v44.626c0,0.552-0.447,1-1,1h-5.666
	c-0.553,0-1-0.448-1-1s0.447-1,1-1h4.666V27.232h-13v38.775c0,0.552-0.447,1-1,1s-1-0.448-1-1V26.232c0-0.552,0.447-1,1-1h0.93
	l0.748-5.028c0.073-0.49,0.494-0.853,0.989-0.853h9.667c0.495,0,0.916,0.363,0.989,0.853l0.748,5.028h0.929
	C71.886,25.232,72.333,25.679,72.333,26.232z M59.285,25.232h9.097l-0.577-3.881h-7.942L59.285,25.232z M68.271,30.35
	c0.553,0,1-0.448,1-1s-0.447-1-1-1h-8.875c-0.553,0-1,0.448-1,1s0.447,1,1,1H68.271z M62.659,49.81
	c0.001,0.014,0.008,0.026,0.008,0.041v19.97c0,0.552-0.447,1-1,1h-9.334c-0.553,0-1-0.448-1-1v-5.444H47.75v0.484
	c0,0.552-0.447,1-1,1h-3.443v3.96c0,0.552-0.447,1-1,1H26.265c-0.553,0-1-0.448-1-1s0.447-1,1-1h15.042v-0.394
	c-1.683-0.251-3.775-1.682-3.775-5.05s2.093-4.799,3.775-5.05v-2.669c-0.102-0.379-0.453-1.562-1.161-3.033
	c-0.023,0.006-0.041,0.022-0.065,0.027c-0.088,0.017-0.999,0.189-2.278,0.189c-1.825,0-4.402-0.351-6.41-2.002
	c-1.821-1.498-2.792-3.75-2.912-6.681c-0.253-0.013-0.509-0.024-0.771-0.024H1.057c-0.553,0-1-0.448-1-1s0.447-1,1-1h21.584
	L6.516,28.22H1.062c-0.553,0-1-0.448-1-1s0.447-1,1-1h5.825c0.24,0,0.472,0.086,0.653,0.243l18.162,15.67h2.005
	c12.186,0,15.537,13.024,15.569,13.156c0.02,0.078,0.029,0.159,0.029,0.239v5.363h3.443c0.553,0,1,0.448,1,1v0.484h4.583
	c0.553,0,1,0.448,1,1v5.444h7.334V49.85c0-0.014,0.008-0.026,0.008-0.041c-1.371-0.104-2.373-0.414-2.373-0.784v-6.368
	c0-0.456,1.506-0.825,3.365-0.825s3.365,0.369,3.365,0.825v6.368C65.031,49.396,64.029,49.705,62.659,49.81z M39.122,50.768
	c-1.644-2.627-4.357-5.474-8.635-6.356c0.151,2.174,0.878,3.816,2.175,4.882C34.773,51.03,37.862,50.906,39.122,50.768z
	 M40.396,60.892h0.91v-0.521C41.035,60.451,40.703,60.604,40.396,60.892z M41.307,65.86h-0.911c0.306,0.288,0.639,0.441,0.911,0.521
	V65.86z M45.75,62.892h-6.196c-0.013,0.153-0.022,0.313-0.022,0.484c0,0.172,0.009,0.331,0.022,0.484h6.196V62.892z M0,23.291V1.475
	c0-0.552,0.447-1,1-1h51.25c0.553,0,1,0.448,1,1v21.815c0,0.552-0.447,1-1,1H29.375v14.06c0,0.552-0.447,1-1,1s-1-0.448-1-1v-14.06
	h-1.5v14.06c0,0.552-0.447,1-1,1s-1-0.448-1-1v-14.06H1C0.447,24.291,0,23.843,0,23.291z M51.25,22.291V6.139H2v16.151h22.875h3.5
	H51.25z M2,2.475v1.664h49.25V2.475H2z M39.396,9.517l-1.275,2.208H14.923l-1.275-2.208c-0.401-0.696-1.145-1.125-1.948-1.125H7.851
	v4.5h2.55l0.625,1.083L10.4,15.058h-2.55v4.5h3.849c0.804,0,1.547-0.429,1.948-1.125l1.275-2.208H38.12l1.275,2.208
	c0.401,0.696,1.145,1.125,1.948,1.125h3.85v-4.5h-2.551l-0.625-1.083l0.625-1.083h2.551v-4.5h-3.85
	C40.54,8.392,39.797,8.821,39.396,9.517z"/>
<g>
	<path style="fill:#231F20;" d="M12.672,33.211H1c-0.553,0-1-0.448-1-1s0.447-1,1-1h11.672c0.553,0,1,0.448,1,1
		S13.225,33.211,12.672,33.211z"/>
</g>
<g>
	<path style="fill:#231F20;" d="M18.829,38.523H1c-0.553,0-1-0.448-1-1s0.447-1,1-1h17.829c0.553,0,1,0.448,1,1
		S19.382,38.523,18.829,38.523z"/>
</g>
<g>
</g>
<g>
</g>
<g>
</g>
<g>
</g>
<g>
</g>
<g>
</g>
<g>
</g>
<g>
</g>
<g>
</g>
<g>
</g>
<g>
</g>
<g>
</g>
<g>
</g>
<g>
</g>
<g>
</g>
</svg>
