<?xml version="1.0" encoding="iso-8859-1"?>
<!-- Generator: Adobe Illustrator 18.0.0, SVG Export Plug-In . SVG Version: 6.00 Build 0)  -->
<!DOCTYPE svg PUBLIC "-//W3C//DTD SVG 1.1//EN" "http://www.w3.org/Graphics/SVG/1.1/DTD/svg11.dtd">
<svg version="1.1" id="Capa_1" xmlns="http://www.w3.org/2000/svg" xmlns:xlink="http://www.w3.org/1999/xlink" x="0px" y="0px"
	 viewBox="0 0 72.223 72.223" style="enable-background:new 0 0 72.223 72.223;" xml:space="preserve">
<path style="fill:#231F20;" d="M61.09,51.52l0.469-1.395c0.176-0.523-0.106-1.09-0.629-1.266c-0.522-0.176-1.09,0.106-1.266,0.629
	l-0.27,0.805c-3.15-2.139-5.689-3.143-5.757-3.169c-0.253-0.099-0.536-0.088-0.782,0.027c-0.247,0.115-0.435,0.325-0.523,0.582
	c-3.867,11.292-15.678,10.93-16.264,10.909c-0.5,0.017-12.31,0.385-16.177-10.909c-0.088-0.257-0.277-0.467-0.523-0.582
	c-0.247-0.115-0.529-0.125-0.782-0.027c-0.067,0.026-2.607,1.03-5.757,3.169l-0.269-0.804c-0.176-0.523-0.743-0.808-1.266-0.63
	c-0.523,0.175-0.806,0.742-0.63,1.266l0.468,1.397C6.189,55.318,0.611,61.71,0.611,71.223c0,0.552,0.448,1,1,1s1-0.448,1-1
	c0-8.37,4.756-14.139,9.191-17.699l3.422,10.213v7.486h20.887h20.887v-7.521l3.42-10.18c4.436,3.56,9.193,9.329,9.193,17.701
	c0,0.552,0.448,1,1,1s1-0.448,1-1C71.611,61.709,66.032,55.317,61.09,51.52z M18.028,67.139c-0.437,0-0.792-0.354-0.792-0.792
	c0-0.437,0.354-0.792,0.792-0.792c0.437,0,0.792,0.354,0.792,0.792C18.82,66.785,18.465,67.139,18.028,67.139z M36.111,67.139
	c-0.437,0-0.792-0.354-0.792-0.792c0-0.437,0.354-0.792,0.792-0.792c0.437,0,0.792,0.354,0.792,0.792
	C36.903,66.785,36.549,67.139,36.111,67.139z M54.195,67.139c-0.437,0-0.792-0.354-0.792-0.792c0-0.437,0.354-0.792,0.792-0.792
	c0.437,0,0.792,0.354,0.792,0.792C54.986,66.785,54.632,67.139,54.195,67.139z M54.938,63.556H36.111H17.273L13.488,52.26
	c2.034-1.429,3.848-2.371,4.89-2.861c4.72,11.684,17.643,11.248,17.688,11.24c0.139,0.011,13.059,0.443,17.778-11.24
	c1.041,0.49,2.855,1.432,4.888,2.86L54.938,63.556z M18.112,23.109l1.997,0.617l1.768,1.958c0.212,0.236,0.524,0.354,0.837,0.326
	c0.315-0.03,0.597-0.208,0.761-0.479c0.021-0.036,2.463-3.606,12.635-3.614c10.077,0.007,12.582,3.536,12.645,3.627
	c0.165,0.263,0.443,0.435,0.752,0.465c0.032,0.003,0.063,0.004,0.095,0.004c0.282,0,0.552-0.119,0.742-0.33l1.768-1.958l1.997-0.617
	c0.419-0.129,0.705-0.517,0.705-0.956c0-14.608-10.103-19.349-16.209-20.367c0.006-0.045,0.021-0.088,0.021-0.134
	C38.626,0.74,37.5,0,36.111,0s-2.515,0.74-2.515,1.653c0,0.043,0.014,0.083,0.019,0.125c-6.08,1-16.208,5.727-16.208,20.376
	C17.408,22.592,17.693,22.98,18.112,23.109z M36.081,3.556c0.165,0,16.282,0.493,16.725,17.863l-1.546,0.478
	c-0.172,0.053-0.326,0.152-0.447,0.286l-1.219,1.35c-1.503-1.344-5.255-3.608-13.483-3.614c-8.227,0.006-11.979,2.27-13.482,3.614
	l-1.219-1.35c-0.121-0.134-0.275-0.232-0.447-0.286l-1.546-0.478C19.858,4.049,35.916,3.556,36.081,3.556z M23.679,18.806
	c0.112,0,0.227-0.02,0.339-0.06c7.799-2.808,16.389-2.808,24.188,0c0.52,0.188,1.093-0.083,1.28-0.602s-0.083-1.093-0.602-1.28
	c-1.824-0.657-3.691-1.159-5.578-1.525c0.306-1.071,0.609-2.142,0.89-3.215c0.068-0.258,0.029-0.533-0.107-0.763
	c-0.136-0.23-0.358-0.396-0.617-0.46c-4.883-1.226-9.835-1.226-14.718,0c-0.259,0.065-0.481,0.23-0.617,0.46
	c-0.136,0.229-0.175,0.504-0.107,0.763c0.281,1.073,0.584,2.144,0.89,3.215c-1.888,0.366-3.754,0.868-5.578,1.525
	c-0.52,0.187-0.789,0.76-0.602,1.28C22.885,18.552,23.269,18.806,23.679,18.806z M30.227,12.611c3.91-0.838,7.859-0.838,11.77,0
	c-0.215,0.8-0.443,1.598-0.673,2.396c-3.457-0.481-6.968-0.481-10.424,0C30.67,14.209,30.442,13.41,30.227,12.611z M18.74,38.563
	c1.305,12.146,10.874,17.62,17.371,17.62s16.066-5.473,17.371-17.62c1.886-0.969,4.645-3.552,4.511-8.097
	c-0.024-0.81-0.096-3.273-1.777-3.909c-1.669-0.633-3.436,1.136-3.772,1.496c-0.377,0.404-0.356,1.037,0.047,1.414
	c0.404,0.377,1.037,0.357,1.414-0.047c0.526-0.563,1.366-1.078,1.605-0.991c0.004,0.001,0.431,0.275,0.485,2.096
	c0.143,4.849-3.646,6.368-3.802,6.429c-0.362,0.135-0.614,0.468-0.646,0.853c-0.216,2.576-0.827,4.77-1.678,6.66
	c-2.601-4.105-8.213-7.248-13.765-7.248c-0.048,0-0.097,0-0.146,0c-5.226,0.052-11.101,3.049-13.749,6.938
	c-0.776-1.819-1.328-3.917-1.532-6.35c-0.032-0.385-0.284-0.718-0.646-0.853c-0.04-0.015-3.946-1.534-3.802-6.429
	c0.054-1.82,0.48-2.095,0.485-2.096c0.222-0.084,1.017,0.369,1.605,0.991c0.377,0.404,1.011,0.425,1.414,0.047
	c0.403-0.377,0.424-1.01,0.047-1.414c-0.336-0.36-2.099-2.123-3.772-1.496c-1.681,0.635-1.753,3.099-1.777,3.909
	C14.096,35.011,16.854,37.594,18.74,38.563z M35.977,39.219c0.045,0,0.089,0,0.134,0c5.845,0,11.062,3.78,12.63,7.357
	c-3.515,5.578-9.378,7.608-12.63,7.608c-3.311,0-9.327-2.106-12.817-7.917C25.003,42.845,30.492,39.273,35.977,39.219z
	 M21.778,27.424c-0.943,15.046,14.499,7.031,14.333,6.888c-0.164,0.143,15.271,8.054,14.333-6.888
	C40.898,28.024,31.324,28.024,21.778,27.424z M29.098,30.395l-2.75,3.875c-0.195,0.275-0.503,0.421-0.816,0.421
	c-0.2,0-0.402-0.06-0.578-0.185c-0.451-0.319-0.557-0.944-0.237-1.394l2.75-3.875c0.319-0.451,0.945-0.556,1.394-0.237
	C29.312,29.32,29.417,29.945,29.098,30.395z M33.101,30.395l-1.88,2.649c-0.195,0.275-0.503,0.421-0.816,0.421
	c-0.2,0-0.402-0.06-0.578-0.185c-0.451-0.319-0.557-0.944-0.237-1.394l1.88-2.649c0.319-0.451,0.943-0.556,1.394-0.237
	S33.421,29.945,33.101,30.395z M46.612,29.001c0.451,0.319,0.557,0.944,0.237,1.394l-2.75,3.875
	c-0.195,0.275-0.503,0.421-0.816,0.421c-0.2,0-0.402-0.06-0.578-0.185c-0.451-0.319-0.557-0.944-0.237-1.394l2.75-3.875
	C45.537,28.787,46.163,28.682,46.612,29.001z M39.351,31.887l1.88-2.649c0.32-0.451,0.943-0.556,1.394-0.237
	c0.451,0.319,0.557,0.944,0.237,1.394l-1.88,2.649c-0.195,0.275-0.503,0.421-0.816,0.421c-0.2,0-0.402-0.06-0.578-0.185
	C39.137,32.962,39.031,32.337,39.351,31.887z M36.111,53.921c3.51,0,6.365-2.855,6.365-6.365s-2.855-6.365-6.365-6.365
	s-6.365,2.855-6.365,6.365S32.602,53.921,36.111,53.921z M34.764,47.487l-2.355,2.355c-0.413-0.667-0.663-1.445-0.663-2.286
	c0-0.877,0.265-1.69,0.712-2.375L34.764,47.487z M33.823,51.257l2.355-2.355l2.309,2.309c-0.685,0.447-1.498,0.712-2.375,0.712
	C35.27,51.921,34.49,51.671,33.823,51.257z M39.812,45.267c0.414,0.667,0.665,1.447,0.665,2.289c0,0.805-0.234,1.551-0.616,2.199
	l-2.268-2.268L39.812,45.267z M38.397,43.854l-2.219,2.219l-2.266-2.266c0.648-0.382,1.394-0.616,2.199-0.616
	C36.952,43.191,37.73,43.441,38.397,43.854z"/>
<g>
</g>
<g>
</g>
<g>
</g>
<g>
</g>
<g>
</g>
<g>
</g>
<g>
</g>
<g>
</g>
<g>
</g>
<g>
</g>
<g>
</g>
<g>
</g>
<g>
</g>
<g>
</g>
<g>
</g>
</svg>
