<?xml version="1.0" encoding="iso-8859-1"?>
<!-- Generator: Adobe Illustrator 18.0.0, SVG Export Plug-In . SVG Version: 6.00 Build 0)  -->
<!DOCTYPE svg PUBLIC "-//W3C//DTD SVG 1.1//EN" "http://www.w3.org/Graphics/SVG/1.1/DTD/svg11.dtd">
<svg version="1.1" id="Capa_1" xmlns="http://www.w3.org/2000/svg" xmlns:xlink="http://www.w3.org/1999/xlink" x="0px" y="0px"
	 viewBox="0 0 71.778 71.778" style="enable-background:new 0 0 71.778 71.778;" xml:space="preserve">
<path style="fill:#231F20;" d="M30.648,69.337c0.427,0.35,0.49,0.98,0.14,1.407c-0.197,0.242-0.484,0.367-0.774,0.367
	c-0.223,0-0.446-0.074-0.633-0.226l-5.701-4.667c-0.427-0.35-0.49-0.98-0.14-1.407c0.349-0.427,0.978-0.49,1.407-0.141
	L30.648,69.337z M48.133,64.811c-0.349-0.428-0.979-0.49-1.407-0.141l-5.701,4.667c-0.427,0.35-0.49,0.98-0.14,1.407
	c0.197,0.242,0.484,0.367,0.774,0.367c0.223,0,0.446-0.074,0.633-0.226l5.701-4.667C48.42,65.868,48.484,65.238,48.133,64.811z
	 M70.965,7.444v4.135c0,0.552-0.447,1-1,1h-4.228c-0.869,2.118-2.951,3.615-5.378,3.615l-0.403,0v40.823
	c5.305,0.568,6.88,5.643,6.957,8.399c0.015,0.552-0.42,1.012-0.973,1.027c-0.009,0-0.019,0-0.028,0
	c-0.538,0-0.982-0.429-0.999-0.971c-0.009-0.275-0.28-6.509-5.957-6.509c-0.553,0-1-0.448-1-1V38.709H53.41c-0.553,0-1-0.448-1-1
	s0.447-1,1-1h4.545V16.195l-5.516,0.002c-1.266,0-2.586-0.07-3.68-0.789v23.297c0,0.552-0.447,1-1,1h-5.996v5.063
	c0,0.552-0.447,1-1,1h-0.875v20.677c0,0.231-0.08,0.455-0.226,0.633l-3,3.667c-0.19,0.232-0.475,0.367-0.774,0.367
	s-0.584-0.135-0.774-0.367l-3-3.667c-0.146-0.179-0.226-0.402-0.226-0.633V45.768h-0.875c-0.553,0-1-0.448-1-1v-5.063h-5.996
	c-0.553,0-1-0.448-1-1V15.401c-1.19,0.79-2.659,0.796-3.68,0.796l-4.775-0.002v20.514h4.545c0.553,0,1,0.448,1,1s-0.447,1-1,1
	h-4.545v19.255c0,0.552-0.447,1-1,1c-5.682,0-5.949,6.244-5.957,6.509c-0.018,0.541-0.462,0.969-0.999,0.969
	c-0.011,0-0.021,0-0.031,0c-0.551-0.017-0.984-0.475-0.97-1.026c0.077-2.757,1.652-7.832,6.957-8.399V16.194l-1.144,0
	c-2.427,0-4.509-1.497-5.378-3.615H1.813c-0.553,0-1-0.448-1-1V7.444c0-0.552,0.447-1,1-1h4.793c0.161,0,0.308,0.047,0.443,0.115
	c1.066-1.219,2.628-1.993,4.371-1.993l7.918-0.003c1.021,0,2.491,0.006,3.681,0.796V1c0-0.552,0.447-1,1-1H47.76
	c0.553,0,1,0.448,1,1v4.359c1.19-0.79,2.66-0.796,3.681-0.796l7.918,0.003c1.742,0,3.304,0.774,4.371,1.993
	c0.135-0.068,0.281-0.115,0.443-0.115h4.793C70.518,6.444,70.965,6.892,70.965,7.444z M5.606,8.444H2.813v2.135h2.793V8.444z
	 M23.018,10.38c0-3.817-1.544-3.817-3.681-3.817l-7.918,0.003c-2.103,0-3.813,1.711-3.813,3.814c0,1.595,0.986,2.96,2.378,3.529
	v-2.329c0-0.552,0.447-1,1-1s1,0.448,1,1v2.615l1.99,0.001v-2.616c0-0.552,0.447-1,1-1s1,0.448,1,1v2.616l2.134,0.001v-2.617
	c0-0.552,0.447-1,1-1s1,0.448,1,1v2.61C21.835,14.137,23.018,13.721,23.018,10.38z M37.889,45.768h-4v20.32l1,1.222V47.634
	c0-0.552,0.447-1,1-1s1,0.448,1,1V67.31l1-1.222V45.768z M39.764,39.705h-7.75v4.063h0.875h6h0.875V39.705z M46.76,2H25.018v35.705
	h5.996h9.75h5.996V2z M64.172,10.38c0-2.103-1.711-3.814-3.813-3.814l-7.918-0.003c-2.137,0-3.681,0-3.681,3.817
	c0,1.73,0.337,2.816,1.029,3.318c0.47,0.341,1.154,0.45,1.881,0.484v-2.602c0-0.552,0.447-1,1-1s1,0.448,1,1v2.617l2.134-0.001
	v-2.616c0-0.552,0.447-1,1-1s1,0.448,1,1v2.616l1.99-0.001v-2.615c0-0.552,0.447-1,1-1s1,0.448,1,1v2.329
	C63.186,13.34,64.172,11.975,64.172,10.38z M68.965,8.444h-2.793v2.135h2.793V8.444z M44.139,26.465v6.958c0,0.552-0.447,1-1,1
	h-14.5c-0.553,0-1-0.448-1-1v-6.958c0-0.552,0.447-1,1-1h14.5C43.692,25.465,44.139,25.913,44.139,26.465z M42.139,27.465h-12.5
	v4.958h12.5V27.465z M32.09,22.036c0.553,0,1-0.448,1-1V5.563c0-0.552-0.447-1-1-1s-1,0.448-1,1v15.473
	C31.09,21.588,31.537,22.036,32.09,22.036z M35.889,22.036c0.553,0,1-0.448,1-1V5.563c0-0.552-0.447-1-1-1s-1,0.448-1,1v15.473
	C34.889,21.588,35.336,22.036,35.889,22.036z M39.688,22.036c0.553,0,1-0.448,1-1V5.563c0-0.552-0.447-1-1-1s-1,0.448-1,1v15.473
	C38.688,21.588,39.135,22.036,39.688,22.036z M24.313,69.778h-21.5c-0.553,0-1,0.448-1,1s0.447,1,1,1h21.5c0.553,0,1-0.448,1-1
	S24.865,69.778,24.313,69.778z M68.98,69.778h-21.5c-0.553,0-1,0.448-1,1s0.447,1,1,1h21.5c0.553,0,1-0.448,1-1
	S69.532,69.778,68.98,69.778z M25.018,62.444V42.318c0-0.552-0.447-1-1-1s-1,0.448-1,1v20.126c0,0.552,0.447,1,1,1
	S25.018,62.997,25.018,62.444z M49.5,62.444V42.318c0-0.552-0.447-1-1-1s-1,0.448-1,1v20.126c0,0.552,0.447,1,1,1
	S49.5,62.997,49.5,62.444z"/>
<g>
</g>
<g>
</g>
<g>
</g>
<g>
</g>
<g>
</g>
<g>
</g>
<g>
</g>
<g>
</g>
<g>
</g>
<g>
</g>
<g>
</g>
<g>
</g>
<g>
</g>
<g>
</g>
<g>
</g>
</svg>
