<?xml version="1.0" encoding="iso-8859-1"?>
<!-- Generator: Adobe Illustrator 18.0.0, SVG Export Plug-In . SVG Version: 6.00 Build 0)  -->
<!DOCTYPE svg PUBLIC "-//W3C//DTD SVG 1.1//EN" "http://www.w3.org/Graphics/SVG/1.1/DTD/svg11.dtd">
<svg version="1.1" id="Capa_1" xmlns="http://www.w3.org/2000/svg" xmlns:xlink="http://www.w3.org/1999/xlink" x="0px" y="0px"
	 viewBox="0 0 75.164 75.164" style="enable-background:new 0 0 75.164 75.164;" xml:space="preserve">
<path style="fill:#231F20;" d="M4.783,30.589c-1.714-0.571-4.918-2.91-4.778-7.675c0.022-0.766,0.092-3.096,1.701-3.705
	c1.601-0.602,3.27,1.071,3.59,1.412c0.377,0.403,0.355,1.036-0.048,1.414c-0.401,0.376-1.034,0.357-1.413-0.047
	c-0.506-0.537-1.222-0.951-1.426-0.906c0.004,0-0.358,0.3-0.404,1.891c-0.133,4.486,3.375,5.707,3.411,5.719
	c0.523,0.175,0.807,0.741,0.632,1.265c-0.139,0.419-0.529,0.685-0.948,0.685C4.995,30.641,4.888,30.624,4.783,30.589z M19.002,20.08
	c0,0.552,0.447,1,1,1h2.25v5.875c0,0.552,0.447,1,1,1s1-0.448,1-1V20.08c0-0.552-0.447-1-1-1h-3.25
	C19.45,19.08,19.002,19.528,19.002,20.08z M7.297,19.08c-0.553,0-1,0.448-1,1s0.447,1,1,1h9.658c0.553,0,1-0.448,1-1s-0.447-1-1-1
	H7.297z M22.227,34.508c0.553,0,1-0.448,1-1v-3.471c0-0.552-0.447-1-1-1s-1,0.448-1,1v2.471h-2.004c-0.277,0-0.543,0.117-0.732,0.32
	c-0.188,0.203-0.285,0.478-0.265,0.755c0.002,0.026,0.137,2.149-0.927,4.127c-0.045-0.021-0.081-0.054-0.13-0.068
	c-1.26-0.368-4.854-1.84-4.854-3.717c0-0.552-0.447-1-1-1s-1,0.448-1,1c0,3.142,4.057,4.87,5.685,5.438
	c-1.362,1.224-3.316,1.851-5.831,1.851c-0.553,0-1,0.448-1,1s0.447,1,1,1c3.346,0,5.935-0.965,7.694-2.869
	c1.827-1.976,2.262-4.446,2.351-5.837H22.227z M4.078,45.417c-0.546-0.042-1.032,0.368-1.075,0.919
	c-0.043,0.55,0.368,1.032,0.919,1.075c0.104,0.008,10.389,0.908,10.389,8.804V71.39c0,0.552,0.447,1,1,1s1-0.448,1-1V56.215
	C16.31,48.434,8.309,45.749,4.078,45.417z M23.067,48.551c-0.542-0.125-1.076,0.203-1.206,0.74
	c-0.129,0.537,0.202,1.077,0.739,1.206l31.038,7.438c0.077,0.018,0.155,0.027,0.233,0.027c0.069,0,0.138-0.007,0.206-0.021
	l16.75-3.521c0.54-0.113,0.886-0.644,0.772-1.184c-0.113-0.541-0.647-0.888-1.185-0.773l-16.529,3.474L23.067,48.551z
	 M26.303,46.414v-15.14c0-0.279,0.116-0.544,0.32-0.734s0.469-0.289,0.757-0.263l25.825,1.994l16.026-1.244
	c0.277-0.021,0.553,0.074,0.756,0.263c0.205,0.189,0.321,0.455,0.321,0.734v17.07c0,0.489-0.354,0.906-0.836,0.986l-16.085,2.677
	c-0.059,0.011-0.118,0.017-0.18,0.017c0,0,0,0-0.001,0c0,0-0.001,0-0.002,0c-0.033-0.006-0.151-0.009-0.224-0.025L27.1,47.393
	C26.636,47.297,26.303,46.888,26.303,46.414z M68.309,34.866l-5.306,6.631l5.306,5.212V34.866z M61.747,43.067l-5.789,7.235
	l11.248-1.872L61.747,43.067z M67.08,33.2l-11.606,0.901l6.094,5.987L67.08,33.2z M54.206,35.659V49.29l6.107-7.632L54.206,35.659z
	 M52.206,34.902l-11.317,5.741l11.317,8.862V34.902z M38.921,41.641l-8.618,4.372l19.303,3.995L38.921,41.641z M49.571,33.996
	l-19.049-1.471l8.629,6.757L49.571,33.996z M28.303,33.327v11.459l8.88-4.505L28.303,33.327z M27.657,27.917
	c0.525,0.145,1.083-0.159,1.233-0.69l2.405-8.516h6.689l1.578,8.428c0.091,0.48,0.511,0.816,0.982,0.816
	c0.061,0,0.123-0.005,0.185-0.017c0.543-0.102,0.901-0.624,0.8-1.167l-1.509-8.06h12.144v10.356c0,0.552,0.447,1,1,1s1-0.448,1-1
	V18.711h9.892l3.228,10.269c0.135,0.427,0.528,0.701,0.954,0.701c0.099,0,0.2-0.015,0.3-0.046c0.527-0.166,0.819-0.727,0.654-1.254
	l-3.448-10.969c-0.131-0.417-0.518-0.7-0.954-0.7H53.164H30.539c-0.447,0-0.841,0.297-0.962,0.728l-2.61,9.244
	C26.816,27.215,27.125,27.768,27.657,27.917z M16.506,10.408C17.15,9.703,17.99,9.258,19,9.06c-1.398-2.226-3.998-4.286-8.833-4.286
	H1.001c-0.553,0-1-0.448-1-1s0.447-1,1-1h9.167c12.317,0,12.46,11.621,12.46,11.738c0,0.552-0.447,1-1,1H1.001c-0.553,0-1-0.448-1-1
	s0.447-1,1-1h14.23C15.32,12.632,15.61,11.391,16.506,10.408z M17.984,11.756c-0.473,0.519-0.667,1.207-0.745,1.756h3.31
	c-0.084-0.654-0.261-1.565-0.625-2.555C19.077,11.011,18.431,11.265,17.984,11.756z M74.778,56.172
	c-0.244-0.189-0.562-0.254-0.86-0.18l-20.039,5.082L20.18,52.079c-0.301-0.079-0.621-0.016-0.867,0.173s-0.391,0.482-0.391,0.793
	V71.39c0,0.552,0.447,1,1,1s1-0.448,1-1V54.347l31.949,8.529v8.514c0,0.552,0.447,1,1,1s1-0.448,1-1v-8.504l18.292-4.639V71.39
	c0,0.552,0.447,1,1,1s1-0.448,1-1V56.961C75.164,56.653,75.021,56.362,74.778,56.172z"/>
<g>
</g>
<g>
</g>
<g>
</g>
<g>
</g>
<g>
</g>
<g>
</g>
<g>
</g>
<g>
</g>
<g>
</g>
<g>
</g>
<g>
</g>
<g>
</g>
<g>
</g>
<g>
</g>
<g>
</g>
</svg>
