<?xml version="1.0" encoding="iso-8859-1"?>
<!-- Generator: Adobe Illustrator 18.0.0, SVG Export Plug-In . SVG Version: 6.00 Build 0)  -->
<!DOCTYPE svg PUBLIC "-//W3C//DTD SVG 1.1//EN" "http://www.w3.org/Graphics/SVG/1.1/DTD/svg11.dtd">
<svg version="1.1" id="Capa_1" xmlns="http://www.w3.org/2000/svg" xmlns:xlink="http://www.w3.org/1999/xlink" x="0px" y="0px"
	 viewBox="0 0 75.582 75.582" style="enable-background:new 0 0 75.582 75.582;" xml:space="preserve">
<path style="fill:#231F20;" d="M23.445,15.547C23.445,11.9,24.5,0,38.073,0c13.572,0,14.627,11.9,14.627,15.547c0,0.552-0.448,1-1,1
	s-1-0.448-1-1C50.699,11.474,49.469,2,38.073,2c-11.397,0-12.627,9.474-12.627,13.547c0,0.552-0.448,1-1,1
	S23.445,16.099,23.445,15.547z M22.051,21.243c0.019-0.634,0.076-2.563,1.469-3.088c1.376-0.519,2.772,0.872,3.038,1.156
	c0.377,0.404,0.356,1.037-0.047,1.414c-0.402,0.378-1.036,0.356-1.414-0.047c-0.253-0.268-0.631-0.539-0.845-0.616
	c-0.065,0.138-0.179,0.483-0.202,1.24c-0.098,3.337,2.484,4.236,2.51,4.245c0.317,0.105,0.56,0.362,0.648,0.684l0.042,0.151
	c0.016,0.06,0.027,0.12,0.032,0.181c0.14,1.671,0.506,3.126,1.026,4.389c2.701-1.477,10.484-4.761,19.882-0.107
	c0.497-1.238,0.847-2.657,0.984-4.282c0.005-0.061,0.016-0.122,0.032-0.181l0.042-0.151c0.088-0.322,0.332-0.579,0.648-0.684
	c0.099-0.035,2.607-0.956,2.51-4.245c-0.022-0.757-0.136-1.103-0.202-1.24c-0.214,0.077-0.592,0.349-0.848,0.618
	c-0.379,0.4-1.011,0.418-1.412,0.042c-0.401-0.378-0.423-1.007-0.046-1.41c0.266-0.284,1.662-1.675,3.039-1.156
	c1.393,0.526,1.45,2.455,1.468,3.088c0.099,3.346-1.857,5.213-3.283,5.947c-0.976,8.98-8.073,13.026-12.895,13.026
	c-3.629,0-8.544-2.293-11.171-7.254c-0.003-0.005-0.009-0.006-0.012-0.01c-0.036-0.052-0.047-0.111-0.072-0.166
	c-0.817-1.594-1.407-3.45-1.64-5.595C23.907,26.456,21.952,24.589,22.051,21.243z M29.231,32.735
	c2.489,4.02,6.679,5.482,8.997,5.482c2.338,0,6.58-1.487,9.06-5.586C38.726,28.408,31.552,31.478,29.231,32.735z M32.461,42.793
	l-3.249,1.525l-0.282-5.156c-0.031-0.551-0.51-0.982-1.053-0.944c-0.551,0.03-0.974,0.502-0.944,1.053l0.052,0.946
	c-0.057,0.009-0.113,0.002-0.169,0.021c-6.277,2.106-11.493,7.27-13.613,13.478c-0.179,0.523,0.101,1.091,0.623,1.27
	c0.107,0.037,0.216,0.054,0.323,0.054c0.416,0,0.804-0.262,0.946-0.677c1.883-5.513,6.463-10.112,12.001-12.097l0.199,3.642
	c0.018,0.332,0.2,0.633,0.485,0.804c0.158,0.094,0.335,0.142,0.513,0.142c0.145,0,0.29-0.031,0.425-0.095l4.591-2.155
	c0.5-0.235,0.715-0.83,0.48-1.33C33.556,42.773,32.96,42.56,32.461,42.793z M72.081,61.923l-0.001,7.507
	c0,3.206-2.608,5.813-5.813,5.813c-3.206,0-5.813-2.608-5.813-5.813l-0.001-7.507c-0.009-1.592-0.019-3.396,1.249-4.671
	c0.874-0.878,2.215-1.337,4.076-1.405l0.966-21.536l0.97,21.607c1.374,0.173,2.402,0.613,3.119,1.334
	C72.099,58.527,72.09,60.332,72.081,61.923z M69.414,58.663c-0.547-0.55-1.606-0.829-3.147-0.829c-1.542,0-2.601,0.279-3.148,0.83
	c-0.474,0.476-0.612,1.226-0.652,2.08h2.6c0.552,0,1,0.448,1,1s-0.448,1-1,1h-2.616l0,2.133h2.615c0.552,0,1,0.448,1,1s-0.448,1-1,1
	h-2.615l0,1.989h2.614c0.552,0,1,0.448,1,1s-0.448,1-1,1h-2.329c0.569,1.392,1.934,2.378,3.528,2.378
	c2.103,0,3.813-1.711,3.813-3.813l0.001-7.518C70.088,60.594,70.095,59.348,69.414,58.663z M16.104,57.59
	c1.268,1.275,1.258,3.08,1.25,4.671l-0.001,7.507c0,3.205-2.608,5.813-5.813,5.813s-5.813-2.608-5.813-5.813l-0.001-7.507
	c-0.009-1.592-0.019-3.396,1.25-4.671c0.792-0.796,1.968-1.246,3.565-1.376V41.263l-6.154-0.712
	c-0.504-0.058-0.885-0.485-0.885-0.993v-6.337c0-0.508,0.38-0.935,0.885-0.993l14.079-1.629c0.281-0.037,0.567,0.057,0.78,0.247
	c0.213,0.189,0.335,0.461,0.335,0.747v9.595c0,0.285-0.122,0.557-0.335,0.747c-0.184,0.164-0.421,0.253-0.665,0.253
	c-0.038,0-0.077-0.002-0.115-0.007l-5.925-0.685v14.72C14.136,56.344,15.312,56.794,16.104,57.59z M17.578,32.714l-8.047,0.931
	v5.488l8.047,0.931V32.714z M5.499,38.667l2.032,0.235v-5.025l-2.032,0.235V38.667z M15.067,71.204h-2.329c-0.552,0-1-0.448-1-1
	s0.448-1,1-1h2.615l0-1.989h-2.615c-0.552,0-1-0.448-1-1s0.448-1,1-1h2.616l0-2.133h-2.616c-0.552,0-1-0.448-1-1s0.448-1,1-1h2.601
	c-0.04-0.854-0.178-1.604-0.652-2.081c-0.547-0.55-1.606-0.83-3.147-0.83s-2.6,0.279-3.147,0.83
	c-0.682,0.685-0.675,1.931-0.667,3.25l0.001,7.518c0,2.103,1.711,3.813,3.813,3.813C13.133,73.582,14.498,72.596,15.067,71.204z
	 M61.055,54.363c0.142,0.416,0.53,0.677,0.946,0.677c0.107,0,0.216-0.018,0.323-0.054c0.522-0.178,0.802-0.747,0.623-1.27
	c-2.12-6.208-7.336-11.372-13.613-13.478c-0.005-0.002-0.009,0-0.014-0.002l0.053-0.966c0.03-0.551-0.393-1.023-0.944-1.053
	c-0.543-0.037-1.023,0.393-1.053,0.944l-0.282,5.156l-3.249-1.525c-0.5-0.234-1.095-0.021-1.33,0.48
	c-0.235,0.5-0.02,1.095,0.48,1.33l4.591,2.155c0.135,0.063,0.28,0.095,0.425,0.095c0.178,0,0.355-0.047,0.513-0.142
	c0.285-0.17,0.467-0.472,0.485-0.804l0.196-3.585C54.677,44.337,59.19,48.901,61.055,54.363z M40.986,52.612c0.552,0,1-0.448,1-1
	s-0.448-1-1-1h-1.758v-2.999c0-0.552-0.448-1-1-1s-1,0.448-1,1v2.999H35.47c-0.552,0-1,0.448-1,1s0.448,1,1,1h1.758v5.939H35.47
	c-0.552,0-1,0.448-1,1s0.448,1,1,1h1.758v5.939H35.47c-0.552,0-1,0.448-1,1s0.448,1,1,1h1.758v4.175c0,0.552,0.448,1,1,1
	s1-0.448,1-1v-4.175h1.758c0.552,0,1-0.448,1-1s-0.448-1-1-1h-1.758v-5.939h1.758c0.552,0,1-0.448,1-1s-0.448-1-1-1h-1.758v-5.939
	H40.986z M47.483,19.282c0.268,0,0.525,0.108,0.713,0.299s0.291,0.45,0.287,0.718c-0.017,0.935-0.177,4.072-1.552,5.188
	c-0.877,0.712-2.248,1.156-3.576,1.156c-1.269,0-2.335-0.402-3.001-1.132c-0.721-0.79-1.201-2.448-1.475-3.678h-1.613
	c-0.274,1.231-0.754,2.888-1.475,3.678c-0.667,0.73-1.733,1.133-3.002,1.133c-1.328,0-2.699-0.443-3.576-1.156
	c-1.375-1.116-1.535-4.253-1.552-5.188c-0.004-0.268,0.099-0.527,0.287-0.718s0.445-0.299,0.713-0.299h7.882
	c0.292,0,0.569,0.127,0.759,0.349c0.051,0.06,0.074,0.134,0.109,0.203h1.321c0.035-0.068,0.058-0.143,0.109-0.203
	c0.19-0.221,0.467-0.349,0.759-0.349H47.483z M35.337,21.282h-5.612c0.122,1.191,0.404,2.374,0.749,2.653
	c0.521,0.424,1.452,0.708,2.315,0.708c0.69,0,1.246-0.175,1.525-0.481C34.69,23.751,35.079,22.455,35.337,21.282z M46.419,21.282
	h-5.612c0.258,1.172,0.647,2.469,1.023,2.881c0.279,0.305,0.834,0.48,1.524,0.48c0.863,0,1.793-0.285,2.315-0.708
	C46.015,23.656,46.297,22.474,46.419,21.282z"/>
<g>
</g>
<g>
</g>
<g>
</g>
<g>
</g>
<g>
</g>
<g>
</g>
<g>
</g>
<g>
</g>
<g>
</g>
<g>
</g>
<g>
</g>
<g>
</g>
<g>
</g>
<g>
</g>
<g>
</g>
</svg>
