<?xml version="1.0" encoding="iso-8859-1"?>
<!-- Generator: Adobe Illustrator 18.0.0, SVG Export Plug-In . SVG Version: 6.00 Build 0)  -->
<!DOCTYPE svg PUBLIC "-//W3C//DTD SVG 1.1//EN" "http://www.w3.org/Graphics/SVG/1.1/DTD/svg11.dtd">
<svg version="1.1" id="Capa_1" xmlns="http://www.w3.org/2000/svg" xmlns:xlink="http://www.w3.org/1999/xlink" x="0px" y="0px"
	 viewBox="0 0 74.732 74.732" style="enable-background:new 0 0 74.732 74.732;" xml:space="preserve">
<path style="fill:#231F20;" d="M18.301,21.625c6.183,1.382,12.388,2.112,18.45,2.171c0.028,0.002,0.057,0.004,0.086,0.004h0.729
	h0.186c0.029,0,0.058-0.001,0.086-0.004c6.04-0.059,12.222-0.784,18.385-2.156c0.496-0.059,0.881-0.481,0.881-0.993
	c0-0.106-0.017-0.209-0.047-0.305c-0.957-8.376-6.949-15.275-14.572-17.537V1c0-0.552-0.447-1-1-1s-1,0.448-1,1v1.332
	c-0.949-0.173-1.912-0.295-2.895-0.32c-0.036-0.004-0.073-0.006-0.11-0.006h-0.01c-0.004-0.001-0.009,0-0.013,0c0,0,0,0-0.001,0
	h-0.321c-0.002,0-0.003,0-0.004,0c-0.033,0-0.065,0.001-0.098,0.005c-0.88,0.02-1.744,0.123-2.599,0.263V1c0-0.552-0.447-1-1-1
	s-1,0.448-1,1v1.713c-7.835,2.172-14.027,9.239-14.922,17.831c-0.03,0.282,0.063,0.563,0.253,0.773
	C17.907,21.475,18.095,21.582,18.301,21.625z M32.433,4.774V9.06c0,0.552,0.447,1,1,1s1-0.448,1-1V4.291
	c0.933-0.17,1.884-0.276,2.852-0.285c1.087,0.01,2.156,0.126,3.198,0.338V9.06c0,0.552,0.447,1,1,1s1-0.448,1-1V4.894
	c6.389,2.129,11.413,7.915,12.491,14.971C49.04,21.13,43.095,21.781,37.294,21.8c-5.803-0.019-11.746-0.67-17.68-1.935
	C20.71,12.683,25.891,6.807,32.433,4.774z M37.458,18.884c-2.605,0-5.216-0.289-7.76-0.857c-0.539-0.121-0.88-0.655-0.759-1.194
	c0.12-0.539,0.655-0.874,1.192-0.758c4.808,1.074,9.849,1.074,14.652,0c0.538-0.117,1.073,0.219,1.193,0.758
	c0.121,0.539-0.219,1.074-0.758,1.194C42.675,18.596,40.063,18.884,37.458,18.884z M57.302,26.127
	c-0.022-0.747-0.089-3.019-1.667-3.615c-1.567-0.593-3.199,1.042-3.511,1.375c-0.377,0.403-0.355,1.033,0.047,1.411
	c0.4,0.378,1.035,0.357,1.412-0.043c0.481-0.51,1.13-0.91,1.333-0.877c0.003,0.002,0.342,0.284,0.386,1.809
	c0.126,4.271-3.147,5.46-3.281,5.506c-0.316,0.105-0.56,0.362-0.647,0.683l-0.052,0.188c-0.017,0.06-0.027,0.121-0.032,0.182
	c-0.055,0.657-0.142,1.283-0.25,1.889l-5.481,1.319c-5.375-0.579-10.822-0.58-16.199,0l-5.481-1.319
	c-0.108-0.605-0.195-1.231-0.25-1.888c-0.005-0.062-0.016-0.123-0.032-0.182l-0.052-0.188c-0.088-0.321-0.331-0.578-0.647-0.683
	c-0.034-0.011-3.409-1.186-3.281-5.506c0.044-1.505,0.374-1.799,0.366-1.801c0.228-0.038,0.871,0.36,1.351,0.868
	c0.379,0.404,1.012,0.424,1.413,0.047c0.403-0.377,0.425-1.01,0.048-1.414c-0.313-0.333-1.943-1.968-3.511-1.375
	c-1.578,0.596-1.645,2.869-1.667,3.615c-0.121,4.129,2.343,6.385,4.061,7.22c0.08,0.775,0.205,1.513,0.355,2.229
	c0.006,0.047,0.021,0.089,0.033,0.135c1.161,5.344,4.186,9.03,7.594,11.225c0.031,0.026,0.067,0.043,0.101,0.066
	c2.578,1.634,5.357,2.432,7.7,2.432c2.358,0,5.157-0.808,7.749-2.464c0.024-0.018,0.051-0.028,0.073-0.048
	c3.395-2.194,6.407-5.87,7.568-11.194c0.015-0.053,0.033-0.102,0.039-0.158c0.15-0.714,0.274-1.45,0.354-2.222
	C54.959,32.513,57.423,30.257,57.302,26.127z M24.41,36.819l3.961,0.953l0.687,6.218C27.112,42.333,25.39,39.999,24.41,36.819z
	 M31.241,45.541l-0.849-7.685c4.694-0.453,9.439-0.453,14.132,0l-0.849,7.686c-2.288,1.332-4.61,1.892-6.217,1.892
	C35.852,47.434,33.53,46.873,31.241,45.541z M45.859,43.99l0.687-6.218l3.961-0.953C49.526,40,47.804,42.333,45.859,43.99z
	 M40.905,50.479h-6.894c-0.553,0-1,0.448-1,1c0,1.727,0.878,2.932,1.906,3.713c-0.051,0.196-0.124,0.538-0.219,1.017l6.09,3.055
	c-0.367-2.024-0.66-3.57-0.79-4.072c1.028-0.781,1.906-1.986,1.906-3.713C41.905,50.927,41.458,50.479,40.905,50.479z
	 M39.707,52.479c-0.486,1.139-1.735,1.637-2.248,1.798c-0.505-0.16-1.759-0.66-2.248-1.798H39.707z M31.251,52.384l-5.699,2.675
	c-0.135,0.063-0.28,0.095-0.425,0.095c-0.178,0-0.355-0.047-0.513-0.142c-0.286-0.17-0.468-0.472-0.485-0.804l-0.263-4.803
	c-1.08,0.336-16.839,5.579-16.839,24.326c0,0.552-0.447,1-1,1s-1-0.448-1-1c0-20.513,18.125-26.201,18.308-26.256
	c0.142-0.044,0.285-0.048,0.424-0.029l-0.081-1.478c-0.03-0.551,0.392-1.023,0.943-1.053c0.544-0.028,1.023,0.392,1.053,0.944
	l0.37,6.759l4.357-2.045c0.503-0.235,1.097-0.019,1.33,0.48C31.966,51.554,31.751,52.149,31.251,52.384z M19.611,70.459v3.273
	c0,0.552-0.447,1-1,1s-1-0.448-1-1v-3.273c0-0.552,0.447-1,1-1S19.611,69.907,19.611,70.459z M69.705,73.732c0,0.552-0.447,1-1,1
	s-1-0.448-1-1c0-18.618-15.967-24.046-16.839-24.326l-0.263,4.803c-0.018,0.332-0.199,0.633-0.485,0.804
	c-0.157,0.094-0.335,0.142-0.513,0.142c-0.145,0-0.29-0.031-0.425-0.095l-5.699-2.675c-0.5-0.235-0.715-0.83-0.48-1.33
	c0.234-0.5,0.827-0.715,1.33-0.48l4.357,2.045l0.37-6.759c0.029-0.551,0.516-0.97,1.053-0.944c0.552,0.03,0.974,0.502,0.943,1.053
	l-0.081,1.478c0.138-0.019,0.281-0.014,0.424,0.029C51.58,47.531,69.705,53.219,69.705,73.732z M57.12,70.459v3.273
	c0,0.552-0.447,1-1,1s-1-0.448-1-1v-3.273c0-0.552,0.447-1,1-1S57.12,69.907,57.12,70.459z M36.241,26.426
	c0,0-0.03,0.196-0.088,0.517h2.61c-0.058-0.321-0.088-0.517-0.088-0.517h11.434c0,0-0.09,5.106-1.715,6.426
	c-1.886,1.532-5.912,1.982-7.556,0.182c-0.726-0.795-1.284-2.577-1.653-4.091h-3.455c-0.368,1.514-0.927,3.295-1.653,4.091
	c-1.644,1.801-5.67,1.351-7.556-0.182c-1.625-1.32-1.715-6.426-1.715-6.426H36.241z M34.312,58.253l6.917,3.469
	c0.155,0.877,0.316,1.79,0.476,2.707l-7.797-3.943C34.051,59.684,34.188,58.93,34.312,58.253z M42.592,69.527l-9.461-4.636
	c0.138-0.789,0.276-1.577,0.412-2.348l8.591,4.345C42.294,67.806,42.448,68.697,42.592,69.527z M43.014,71.961
	c0.127,0.73,0.233,1.337,0.31,1.771h-1.454l-9.433-4.849c0.108-0.624,0.221-1.274,0.337-1.94L43.014,71.961z M32.079,70.948
	l5.417,2.784h-5.902C31.703,73.111,31.873,72.133,32.079,70.948z"/>
<g>
</g>
<g>
</g>
<g>
</g>
<g>
</g>
<g>
</g>
<g>
</g>
<g>
</g>
<g>
</g>
<g>
</g>
<g>
</g>
<g>
</g>
<g>
</g>
<g>
</g>
<g>
</g>
<g>
</g>
</svg>
