<?xml version="1.0" encoding="iso-8859-1"?>
<!-- Generator: Adobe Illustrator 18.0.0, SVG Export Plug-In . SVG Version: 6.00 Build 0)  -->
<!DOCTYPE svg PUBLIC "-//W3C//DTD SVG 1.1//EN" "http://www.w3.org/Graphics/SVG/1.1/DTD/svg11.dtd">
<svg version="1.1" id="Capa_1" xmlns="http://www.w3.org/2000/svg" xmlns:xlink="http://www.w3.org/1999/xlink" x="0px" y="0px"
	 viewBox="0 0 72.929 72.929" style="enable-background:new 0 0 72.929 72.929;" xml:space="preserve">
<path style="fill:#231F20;" d="M14.401,25.848c4.635,1.036,9.395,1.562,14.145,1.562s9.51-0.525,14.173-1.568
	c0.482-0.121,0.802-0.579,0.75-1.073c-0.664-6.372-5.19-11.606-10.965-13.287v-1.048c0-0.552-0.447-1-1-1s-1,0.448-1,1v0.628
	c-0.645-0.091-1.296-0.154-1.96-0.154c-0.662,0-1.313,0.063-1.956,0.153v-0.627c0-0.552-0.447-1-1-1s-1,0.448-1,1v1.047
	c-5.774,1.681-10.301,6.915-10.965,13.288C13.57,25.272,13.905,25.737,14.401,25.848z M24.588,13.581v2.774c0,0.552,0.447,1,1,1
	s1-0.448,1-1v-3.278c0.642-0.105,1.295-0.171,1.96-0.171c0.663,0,1.315,0.066,1.956,0.17v3.278c0,0.552,0.447,1,1,1s1-0.448,1-1
	v-2.775c4.482,1.532,8.006,5.559,8.854,10.509c-8.425,1.753-17.241,1.747-25.625,0C16.581,19.14,20.105,15.113,24.588,13.581z
	 M28.546,23.841c-1.936,0-3.874-0.214-5.762-0.636c-0.539-0.121-0.879-0.655-0.758-1.194c0.12-0.539,0.658-0.874,1.193-0.758
	c3.491,0.781,7.159,0.782,10.652,0c0.539-0.117,1.073,0.219,1.193,0.758c0.121,0.539-0.219,1.074-0.758,1.194
	C32.419,23.627,30.48,23.841,28.546,23.841z M12.998,29.969c0.019-0.614,0.073-2.484,1.435-2.998
	c1.344-0.508,2.699,0.843,2.957,1.119c0.377,0.404,0.355,1.037-0.048,1.414c-0.401,0.376-1.034,0.357-1.413-0.047
	c-0.224-0.236-0.555-0.479-0.758-0.565c-0.061,0.146-0.153,0.474-0.173,1.137c-0.093,3.121,2.283,3.996,2.385,4.031
	c0.309,0.109,0.553,0.364,0.64,0.68l0.04,0.145c0.017,0.06,0.027,0.121,0.032,0.183c0.706,8.41,7.346,11.131,10.451,11.131
	s9.745-2.721,10.451-11.131c0.005-0.062,0.016-0.123,0.032-0.183l0.04-0.145c0.089-0.321,0.331-0.577,0.647-0.683
	c0.094-0.033,2.47-0.908,2.377-4.028c-0.02-0.663-0.112-0.991-0.173-1.137c-0.203,0.087-0.535,0.33-0.76,0.567
	c-0.38,0.398-1.011,0.418-1.413,0.042c-0.4-0.378-0.422-1.007-0.046-1.41c0.259-0.276,1.613-1.624,2.957-1.119
	c1.361,0.514,1.416,2.384,1.435,2.998c0.094,3.211-1.774,5.012-3.149,5.728c-0.947,8.617-7.766,12.5-12.398,12.5
	s-11.451-3.883-12.398-12.5C14.772,34.981,12.904,33.181,12.998,29.969z M66.049,28.527c0.058,0.647,1.319,15.942-6.677,24.683
	c-3.537,3.866-8.337,5.827-14.267,5.827c-0.553,0-1-0.448-1-1s0.447-1,1-1c5.345,0,9.648-1.742,12.791-5.176
	c7.407-8.097,6.174-23.006,6.16-23.155c-0.049-0.55,0.357-1.036,0.907-1.085C65.525,27.58,66.001,27.977,66.049,28.527z
	 M68.261,18.412c0-4.613-4.715-4.613-6.489-4.613s-6.488,0-6.488,4.613v2.246c0,3.578,2.91,6.489,6.488,6.489
	s6.489-2.911,6.489-6.489V18.412z M66.261,20.657c0,2.475-2.014,4.489-4.489,4.489c-2.475,0-4.488-2.014-4.488-4.489v-2.246
	c0-1.613,0.751-2.613,4.488-2.613c3.738,0,4.489,1,4.489,2.613V20.657z M72.615,30.623c-0.193,0.183-0.44,0.273-0.687,0.273
	c-0.266,0-0.53-0.105-0.727-0.313l-3.708-3.925c-0.38-0.401-0.361-1.034,0.04-1.414c0.402-0.379,1.034-0.361,1.413,0.041
	l3.708,3.925C73.035,29.611,73.017,30.244,72.615,30.623z M19.029,28.209c-0.553,0-1,0.448-1,1c0,2.453,0.525,4.304,1.563,5.5
	c0.911,1.052,2.168,1.585,3.734,1.585c0.001,0,0.001,0,0.001,0c2.106,0,4.258-0.999,5.222-1.512c0.962,0.504,3.1,1.483,5.196,1.483
	c1.986,0,5.317-0.917,5.317-7.057c0-0.552-0.447-1-1-1H19.029z M33.745,34.266c-2.198,0-4.657-1.469-4.682-1.483
	c-0.321-0.193-0.723-0.192-1.041,0.003c-0.683,0.419-2.858,1.508-4.695,1.509c0,0,0,0-0.001,0c-0.975,0-1.701-0.293-2.224-0.895
	c-0.584-0.675-0.933-1.746-1.038-3.19h16.964C36.767,33.821,35.057,34.266,33.745,34.266z M43.415,47.829
	c2.914-0.045,7.032-0.693,10.461-3.504c3.96-3.247,5.968-8.532,5.968-15.708c0-0.552-0.447-1-1-1s-1,0.448-1,1
	c0,6.541-1.758,11.302-5.224,14.152c-5.139,4.224-12.437,2.844-12.51,2.83c-0.052-0.01-0.102,0.003-0.154,0.001
	c-0.484-0.02-0.921,0.292-1.02,0.779l-2.188,10.659H17.735l-2.141-8.471c0.927-0.433,1.548-0.641,1.666-0.679
	c0.524-0.169,0.815-0.731,0.647-1.257s-0.73-0.814-1.255-0.649C16.486,46.034,0,51.501,0,71.176c0,0.552,0.447,1,1,1s1-0.448,1-1
	c0-10.741,5.108-16.847,9.418-20.09l1.812,7.076v13.014c0,0.552,0.447,1,1,1s1-0.448,1-1v-12.14h24.068v12.14c0,0.552,0.447,1,1,1
	s1-0.448,1-1V58.138L43.415,47.829z M40.706,47.705c0.199,0.023,0.431,0.045,0.68,0.065l-1.902,9.266H38.79L40.706,47.705z
	 M13.773,49.523l1.898,7.513h-0.665l-1.832-7.152C13.379,49.757,13.578,49.637,13.773,49.523z M46.105,67.209v3.967
	c0,0.552-0.447,1-1,1s-1-0.448-1-1v-3.967c0-0.552,0.447-1,1-1S46.105,66.657,46.105,67.209z M48.046,14.553
	c0.472,0.438,1.22,0.413,1.662-0.055l2.623-2.777l2.773,2.779c0.195,0.196,0.452,0.293,0.708,0.293s0.511-0.097,0.706-0.292
	c0.392-0.39,0.392-1.023,0.002-1.415l-2.815-2.821l0.687-0.728l0.59,0.547c0.185,0.172,0.428,0.267,0.68,0.267
	c0.013,0,0.025,0,0.038,0c0.265-0.01,0.515-0.125,0.695-0.32l3.724-4.017c0.181-0.194,0.276-0.453,0.266-0.718
	c-0.01-0.265-0.125-0.515-0.319-0.695l-3.864-3.582c-0.405-0.375-1.038-0.353-1.413,0.054l-3.723,4.016
	c-0.375,0.405-0.352,1.038,0.054,1.413l0.698,0.647l-4.685,4.96c-0.442,0.468-0.418,1.209,0.055,1.647L48.046,14.553z M55.575,3.166
	l2.397,2.222l-2.364,2.55l-2.396-2.223L55.575,3.166z"/>
<g>
</g>
<g>
</g>
<g>
</g>
<g>
</g>
<g>
</g>
<g>
</g>
<g>
</g>
<g>
</g>
<g>
</g>
<g>
</g>
<g>
</g>
<g>
</g>
<g>
</g>
<g>
</g>
<g>
</g>
</svg>
