<?xml version="1.0" encoding="iso-8859-1"?>
<!-- Generator: Adobe Illustrator 18.0.0, SVG Export Plug-In . SVG Version: 6.00 Build 0)  -->
<!DOCTYPE svg PUBLIC "-//W3C//DTD SVG 1.1//EN" "http://www.w3.org/Graphics/SVG/1.1/DTD/svg11.dtd">
<svg version="1.1" id="Capa_1" xmlns="http://www.w3.org/2000/svg" xmlns:xlink="http://www.w3.org/1999/xlink" x="0px" y="0px"
	 viewBox="0 0 74.168 74.168" style="enable-background:new 0 0 74.168 74.168;" xml:space="preserve">
<path style="fill:#231F20;" d="M19.488,21.194c0.02-0.675,0.076-2.73,1.537-3.284c1.44-0.547,2.93,0.93,3.213,1.232
	c0.378,0.403,0.357,1.036-0.046,1.414c-0.401,0.377-1.034,0.358-1.413-0.045c-0.34-0.358-0.859-0.707-1.069-0.72
	c0.016,0.034-0.191,0.36-0.222,1.46c-0.103,3.65,2.688,4.665,2.807,4.706c0.31,0.108,0.555,0.363,0.643,0.679l0.046,0.165
	c0.017,0.06,0.027,0.121,0.032,0.183c0.824,9.636,8.443,12.748,12.016,12.748c0.004,0,0.007,0,0.01,0
	c3.567-0.005,11.19-3.138,11.984-12.786c0.006-0.061,0.016-0.122,0.032-0.181l0.045-0.165c0.088-0.322,0.33-0.58,0.647-0.686
	c0.111-0.04,2.899-1.063,2.786-4.712c-0.039-1.234-0.295-1.493-0.298-1.496c-0.112,0.032-0.648,0.392-0.998,0.762
	c-0.379,0.399-1.011,0.421-1.412,0.044c-0.402-0.377-0.425-1.007-0.049-1.41c0.282-0.303,1.764-1.784,3.209-1.242
	c1.462,0.549,1.525,2.604,1.547,3.279c0.112,3.633-2.025,5.647-3.559,6.42c-1.021,9.757-8.708,14.163-13.932,14.171
	c-0.005,0-0.011,0-0.016,0c-5.224,0-12.911-4.382-13.963-14.127C21.532,26.834,19.388,24.828,19.488,21.194z M22.845,44.172
	c0.022,0.33,0.206,0.627,0.491,0.794c0.156,0.092,0.331,0.138,0.507,0.138c0.146,0,0.291-0.032,0.427-0.095l4.775-2.25
	c0.499-0.236,0.713-0.832,0.478-1.331c-0.234-0.499-0.827-0.713-1.331-0.479l-3.449,1.626l-0.289-4.295
	c-0.037-0.55-0.486-0.977-1.065-0.93c-0.551,0.037-0.968,0.514-0.931,1.065l0.008,0.113c-3.559,1.172-18.423,7.612-18.383,33.302
	c0.001,0.552,0.448,0.999,1,0.999c0,0,0.001,0,0.002,0c0.552-0.001,0.999-0.449,0.998-1.001C6.045,48.08,18.778,41.893,22.602,40.57
	L22.845,44.172z M47.14,23.597c0.188,0.191,0.292,0.45,0.288,0.718c-0.016,0.935-0.171,4.072-1.544,5.191
	c-0.879,0.716-2.251,1.161-3.582,1.161h-0.001c-1.265,0-2.329-0.4-2.994-1.128c-0.722-0.788-1.205-2.445-1.482-3.675l-1.612,0.003
	c-0.272,1.231-0.749,2.89-1.47,3.681c-0.667,0.733-1.735,1.137-3.009,1.137c-1.325,0-2.692-0.44-3.568-1.15
	c-1.376-1.115-1.541-4.251-1.56-5.186c-0.005-0.268,0.098-0.527,0.285-0.719c0.188-0.192,0.445-0.3,0.713-0.3l7.882-0.012
	c0.001,0,0.001,0,0.002,0c0.291,0,0.567,0.127,0.758,0.348c0.051,0.059,0.074,0.134,0.109,0.202l1.321-0.002
	c0.035-0.068,0.058-0.143,0.109-0.202c0.189-0.222,0.467-0.35,0.758-0.35l7.883-0.013C46.719,23.263,46.951,23.406,47.14,23.597z
	 M34.283,25.319l-5.611,0.009c0.123,1.191,0.407,2.373,0.753,2.652c0.52,0.421,1.448,0.704,2.31,0.704
	c0.693,0,1.251-0.176,1.53-0.483C33.641,27.787,34.028,26.491,34.283,25.319z M45.366,25.301l-5.613,0.009
	c0.261,1.172,0.651,2.467,1.028,2.879c0.278,0.304,0.833,0.479,1.52,0.479h0.001c0.865,0,1.797-0.286,2.318-0.711
	C44.965,27.675,45.245,26.492,45.366,25.301z M51.613,38.486l0.008-0.117c0.035-0.551-0.383-1.026-0.934-1.062
	c-0.568-0.039-1.027,0.383-1.063,0.934l-0.275,4.295l-3.454-1.615c-0.504-0.232-1.096-0.017-1.33,0.482
	c-0.233,0.5-0.018,1.095,0.482,1.329l4.782,2.236c0.135,0.063,0.279,0.094,0.424,0.094c0.177,0,0.353-0.047,0.51-0.14
	c0.284-0.168,0.467-0.466,0.488-0.796l0.23-3.58c3.806,1.371,16.57,7.718,16.605,31.183c0.001,0.552,0.448,0.999,1,0.999
	c0,0,0.001,0,0.002,0c0.552-0.001,0.999-0.449,0.998-1.001C70.046,46.07,55.199,39.66,51.613,38.486z M26.226,59.412l0.011,6.452
	c0.005,2.952-2.386,5.358-5.334,5.378c-0.019,0.002-0.133,0.01-0.296,0.01c-2.471,0-5.11-1.412-5.11-5.373l-0.012-6.813
	c-0.011-1.463-0.022-3.122,1.154-4.308c0.879-0.887,2.256-1.319,4.208-1.322c1.964,0,3.336,0.429,4.214,1.311
	c1.179,1.184,1.172,2.842,1.166,4.306L26.226,59.412z M23.925,67.263l-1.968,0.003c-0.001,0-0.002,0-0.002,0
	c-0.552,0-0.999-0.447-1-0.999c-0.001-0.552,0.446-1,0.998-1.001l2.282-0.003l-0.003-1.622l-2.281,0.003c-0.001,0-0.002,0-0.002,0
	c-0.552,0-0.999-0.447-1-0.999c-0.001-0.552,0.446-1,0.998-1.001l2.282-0.003l-0.003-1.752l-2.281,0.003c-0.001,0-0.002,0-0.002,0
	c-0.552,0-0.999-0.447-1-0.999c-0.001-0.552,0.446-1,0.998-1.001l2.257-0.003c-0.043-0.712-0.164-1.338-0.555-1.729
	c-0.478-0.479-1.411-0.723-2.775-0.723c-1.392,0.002-2.331,0.248-2.81,0.73c-0.591,0.596-0.583,1.708-0.574,2.886l0.012,6.825
	c0,2.936,1.949,3.374,3.11,3.375c0,0,0,0,0.001,0c0.097,0,0.159-0.004,0.175-0.006C22.207,69.242,23.39,68.426,23.925,67.263z
	 M33.444,62.225l-1.945,3.158l0.193,8.785l4.962-9.712L33.444,62.225z M29.251,54.329l-3.876-0.26l8.73,7.446l3.21,2.231
	l8.898-5.591l-4.08-2.961L29.251,54.329z M29.003,53.346l9.234,0.62l-12.245-4.287L29.003,53.346z M45.245,48.672l-4.33,5.509
	l1.795,0.121l4.08,2.961l2.034-9.235L45.245,48.672z M49.392,48.714l-0.49,2.224l3.528,1.502L49.392,48.714z M34.874,69.939
	l4.06,3.568l-2.073-8.409L34.874,69.939z M21.38,15.34c-0.004-0.036-0.023-0.069-0.023-0.106c0-7.489,0-15.234,15.656-15.234
	c15.516,0,15.654,7.607,15.655,15.034c0.013,0.065,0.02,0.132,0.02,0.2c0,0.39-0.229,0.719-0.555,0.884
	c-0.003,0.001-0.004,0.004-0.006,0.005l-0.005,0.003c-0.023,0.011-0.043,0.025-0.066,0.034l-4.122,2.121
	c-0.143,0.073-0.3,0.111-0.458,0.111c-0.056,0-0.112-0.005-0.168-0.014c-6.497-1.105-13.654-1.106-20.151,0
	c-0.201,0.032-0.406,0.005-0.591-0.08l-4.631-2.158c-0.053-0.025-0.088-0.067-0.135-0.099c-0.033-0.022-0.073-0.031-0.103-0.057
	c-0.013-0.011-0.018-0.028-0.03-0.04c-0.064-0.062-0.11-0.133-0.154-0.208c-0.025-0.042-0.055-0.078-0.073-0.122
	C21.403,15.526,21.39,15.434,21.38,15.34z M49.605,15.171c-2.287-0.906-7.336-2.267-12.567-2.154
	c-0.281-0.006-0.512-0.008-0.743-0.008c-4.893,0-9.505,1.237-11.766,2.134l2.6,1.212c6.521-1.072,13.66-1.073,20.184-0.003
	L49.605,15.171z M23.363,13.476c2.875-1.283,8.458-2.587,13.675-2.458c0.197-0.006,0.445-0.009,0.692-0.009
	c4.976,0,10.192,1.245,12.931,2.467C50.579,6.935,49.566,2,37.013,2C24.459,2,23.445,6.935,23.363,13.476z M57.511,54.608
	c1.177,1.186,1.165,2.845,1.154,4.309l-0.012,6.814c0,3.964-2.753,5.371-5.11,5.371c-0.229,0-0.363-0.015-0.363-0.015
	c-2.865,0-5.271-2.413-5.267-5.373l0.011-6.453L47.923,58.9c-0.005-1.462-0.012-3.12,1.166-4.303
	c0.879-0.882,2.251-1.311,4.193-1.311C55.256,53.289,56.632,53.722,57.511,54.608z M56.665,58.903
	c0.009-1.178,0.017-2.291-0.574-2.887c-0.479-0.482-1.417-0.728-2.791-0.73c-1.382,0-2.316,0.243-2.794,0.722
	c-0.39,0.392-0.511,1.018-0.554,1.73l2.256,0.003c0.552,0.001,0.999,0.449,0.998,1.001c-0.001,0.552-0.448,0.999-1,0.999
	c-0.001,0-0.001,0-0.002,0l-2.281-0.003l-0.003,1.752l2.282,0.004c0.552,0.001,0.999,0.449,0.998,1.002
	c-0.001,0.551-0.448,0.998-1,0.998c-0.001,0-0.001,0-0.002,0l-2.281-0.004l-0.003,1.622l2.282,0.004
	c0.552,0.001,0.999,0.449,0.998,1.002c-0.001,0.551-0.448,0.998-1,0.998c-0.001,0-0.001,0-0.002,0l-1.969-0.003
	c0.531,1.162,1.696,1.977,3.055,1.979c0.104,0.005,0.168,0.01,0.265,0.01c1.161,0,3.11-0.438,3.11-3.373L56.665,58.903z"/>
<g>
</g>
<g>
</g>
<g>
</g>
<g>
</g>
<g>
</g>
<g>
</g>
<g>
</g>
<g>
</g>
<g>
</g>
<g>
</g>
<g>
</g>
<g>
</g>
<g>
</g>
<g>
</g>
<g>
</g>
</svg>
