<?xml version="1.0" encoding="iso-8859-1"?>
<!-- Generator: Adobe Illustrator 18.0.0, SVG Export Plug-In . SVG Version: 6.00 Build 0)  -->
<!DOCTYPE svg PUBLIC "-//W3C//DTD SVG 1.1//EN" "http://www.w3.org/Graphics/SVG/1.1/DTD/svg11.dtd">
<svg version="1.1" id="Capa_1" xmlns="http://www.w3.org/2000/svg" xmlns:xlink="http://www.w3.org/1999/xlink" x="0px" y="0px"
	 viewBox="0 0 74.25 74.25" style="enable-background:new 0 0 74.25 74.25;" xml:space="preserve">
<path style="fill:#231F20;" d="M74.127,72.103L65.066,55.53c-0.048-0.495-0.238-1.118-0.741-1.775
	c0.485-0.623,0.755-1.314,0.755-2.07c0-2.474-2.885-4.243-6.769-5.24c-2.381-4.624-6.71-8.534-11.15-10.028
	c-0.027-0.009-0.054-0.004-0.082-0.01l0.042-0.762c0.03-0.552-0.392-1.023-0.943-1.053c-0.555-0.028-1.023,0.392-1.053,0.944
	l-0.237,4.324l-2.673-1.255c-0.504-0.235-1.097-0.019-1.33,0.48c-0.234,0.5-0.02,1.095,0.48,1.33l4.016,1.885
	c0.135,0.063,0.28,0.095,0.425,0.095c0.178,0,0.355-0.047,0.513-0.142c0.286-0.17,0.468-0.472,0.485-0.804l0.162-2.957
	c3.347,1.265,6.585,4.034,8.73,7.416c-1.733-0.271-3.566-0.41-5.372-0.41c-4.528,0-9.231,0.872-12.076,2.529v-5.451
	c0-0.552-0.447-1-1-1s-1,0.448-1,1v7.008c0,0.04,0.018,0.073,0.023,0.112c-0.447,0.602-0.701,1.264-0.701,1.988
	c0,0.756,0.27,1.447,0.755,2.07c-0.234,0.306-0.401,0.604-0.516,0.885h-6.098v-5.391c0-0.552-0.447-1-1-1h-3.928
	c-0.007,0-0.013,0.004-0.019,0.004c-1.388-1.182-4.002-1.81-6.642-1.852c2.791-5.786,7.946-7.594,9.275-7.974l0.165,3.023
	c0.018,0.332,0.199,0.633,0.485,0.804c0.157,0.094,0.335,0.142,0.513,0.142c0.145,0,0.29-0.031,0.425-0.095L33,40.416
	c0.5-0.235,0.715-0.83,0.48-1.33c-0.234-0.5-0.83-0.716-1.33-0.48l-2.672,1.254l-0.237-4.324c-0.029-0.552-0.514-0.974-1.053-0.944
	c-0.552,0.03-0.974,0.501-0.943,1.053l0.041,0.744c-0.001,0-0.001,0-0.002,0c-0.331,0.073-7.976,1.877-11.38,10.116
	c-3.224,0.359-6.019,1.622-6.019,3.728c0,0.044,0.01,0.084,0.013,0.128c0.001,0.008-0.002,0.014-0.001,0.022l0.01,0.064
	c0.01,0.11,0.023,0.219,0.049,0.324l0.533,3.525h-0.364c-0.306,0-0.595,0.14-0.784,0.38c-0.533,0.674-2.676,4.804-5.883,11.027
	c-1.398,2.713-2.72,5.276-3.335,6.402c-0.17,0.31-0.163,0.686,0.017,0.99c0.181,0.304,0.507,0.49,0.86,0.49h72.25
	c0.354,0,0.68-0.186,0.86-0.49C74.29,72.789,74.297,72.413,74.127,72.103z M63.08,64.06c0,1.748-4.853,4.187-12.756,4.187
	c-7.902,0-12.755-2.438-12.755-4.187c0-0.235,0.096-0.48,0.266-0.73c2.786,1.826,7.731,2.791,12.489,2.791
	c4.759,0,9.705-0.965,12.49-2.791C62.984,63.581,63.08,63.825,63.08,64.06z M50.324,57.872c4.759,0,9.705-0.965,12.49-2.791
	c0.17,0.25,0.266,0.495,0.266,0.73c0,1.748-4.853,4.187-12.756,4.187c-7.902,0-12.755-2.438-12.755-4.187
	c0-0.235,0.096-0.48,0.266-0.73C40.621,56.907,45.565,57.872,50.324,57.872z M63.08,59.935c0,1.748-4.853,4.187-12.756,4.187
	c-7.902,0-12.755-2.438-12.755-4.187c0-0.235,0.096-0.48,0.266-0.73c2.786,1.826,7.731,2.791,12.489,2.791
	c4.759,0,9.705-0.965,12.49-2.791C62.984,59.456,63.08,59.7,63.08,59.935z M57.326,48.244c0.028,0.009,0.056,0.013,0.084,0.02
	c3.608,0.86,5.669,2.285,5.669,3.422c0,1.748-4.853,4.187-12.756,4.187c-7.902,0-12.755-2.438-12.755-4.187
	s4.853-4.187,12.755-4.187C53.049,47.499,55.401,47.793,57.326,48.244z M27.711,54.641h-2.584l0.586-3.871
	c0.026-0.105,0.039-0.214,0.049-0.325l0.01-0.063c0.001-0.007-0.002-0.014-0.001-0.022c0.002-0.037,0.011-0.073,0.011-0.111h1.929
	V54.641z M17.835,64.119c-1.324,0-2.697,0.227-3.732,0.7L12.326,53.07c1.5,0.66,3.509,0.999,5.509,0.999
	c1.999,0,4.009-0.339,5.508-0.999l-1.777,11.748C20.531,64.346,19.158,64.119,17.835,64.119z M21.205,66.925
	c-0.309,0.292-1.464,0.806-3.37,0.806c-1.907,0-3.063-0.514-3.371-0.806c0.309-0.292,1.464-0.806,3.371-0.806
	C19.741,66.119,20.896,66.633,21.205,66.925z M17.835,48.395c3.824,0,5.898,1.275,5.94,1.818l-0.009,0.06
	c-0.089,0.554-2.152,1.797-5.931,1.797s-5.843-1.243-5.932-1.797l-0.009-0.06C11.936,49.67,14.01,48.395,17.835,48.395z
	 M2.665,71.583c0.674-1.285,1.576-3.036,2.57-4.966c1.848-3.585,4.538-8.805,5.433-10.324h0.124l1.631,10.781
	c0,0.003,0.002,0.005,0.003,0.008c0.152,1.816,2.871,2.648,5.409,2.648c2.538,0,5.257-0.832,5.408-2.648
	c0-0.003,0.002-0.005,0.003-0.008l1.579-10.434h10.868c0.122,0.438,0.331,0.853,0.632,1.24c-0.604,0.788-0.755,1.527-0.755,2.055
	c0,0.756,0.27,1.447,0.755,2.07c-0.604,0.788-0.755,1.527-0.755,2.055c0,4.018,7.603,6.187,14.755,6.187
	c7.153,0,14.756-2.168,14.756-6.187c0-0.529-0.151-1.267-0.755-2.055c0.485-0.623,0.755-1.314,0.755-2.07
	c0-0.073-0.005-0.151-0.011-0.232l6.494,11.879H2.665z M25.788,26.287c0.89,7.884,7.143,11.438,11.395,11.438
	s10.505-3.554,11.396-11.438c1.271-0.68,2.966-2.344,2.879-5.285c-0.018-0.575-0.068-2.325-1.365-2.814
	c-1.278-0.485-2.551,0.784-2.793,1.043c-0.377,0.404-0.355,1.037,0.048,1.414c0.4,0.375,1.034,0.356,1.413-0.047
	c0.146-0.156,0.395-0.353,0.578-0.454c0.048,0.153,0.105,0.434,0.119,0.917c0.079,2.667-1.786,3.469-2.079,3.578l-3.671,0.804
	c-4.33-0.465-8.718-0.465-13.048,0l-3.668-0.803c-0.312-0.117-2.16-0.922-2.082-3.579c0.014-0.484,0.072-0.765,0.12-0.917
	c0.174,0.095,0.412,0.279,0.578,0.454c0.379,0.404,1.012,0.424,1.413,0.047c0.403-0.377,0.425-1.01,0.048-1.414
	c-0.242-0.259-1.517-1.527-2.793-1.043c-1.297,0.49-1.349,2.239-1.366,2.814C22.822,23.943,24.517,25.608,25.788,26.287z
	 M27.898,26.885l1.776,0.389l0.529,4.826C29.131,30.795,28.278,29.083,27.898,26.885z M44.166,32.096l0.526-4.822l1.777-0.389
	C46.088,29.081,45.236,30.791,44.166,32.096z M42.672,27.344l-0.739,6.773c-1.72,1.143-3.535,1.608-4.751,1.608
	c-1.215,0-3.028-0.464-4.747-1.605l-0.743-6.776C35.34,27.004,39.025,27.004,42.672,27.344z M24.312,15.29
	c0.1,0.065,0.211,0.104,0.324,0.13v0.792c0,0.552,0.447,1,1,1s1-0.448,1-1v-1.402c2.806-1.056,6.702-2.023,10.546-2.023
	c3.843,0,7.74,0.967,10.546,2.023v1.402c0,0.552,0.447,1,1,1s1-0.448,1-1V15.42c0.114-0.026,0.224-0.065,0.325-0.13
	c0.284-0.184,0.455-0.5,0.455-0.838V4.332c0-0.395-0.232-0.753-0.594-0.914c-2.989-1.331-7.904-2.752-12.732-2.752
	c-4.827,0-9.742,1.421-12.731,2.752c-0.361,0.161-0.594,0.519-0.594,0.914v10.12C23.857,14.79,24.028,15.106,24.312,15.29z
	 M25.857,4.992c2.831-1.167,7.117-2.325,11.325-2.325c4.209,0,8.495,1.158,11.326,2.325v7.97c-2.998-1.134-7.193-2.176-11.326-2.176
	c-4.132,0-8.327,1.042-11.325,2.176V4.992z"/>
<g>
</g>
<g>
</g>
<g>
</g>
<g>
</g>
<g>
</g>
<g>
</g>
<g>
</g>
<g>
</g>
<g>
</g>
<g>
</g>
<g>
</g>
<g>
</g>
<g>
</g>
<g>
</g>
<g>
</g>
</svg>
