<?xml version="1.0" encoding="iso-8859-1"?>
<!-- Generator: Adobe Illustrator 18.0.0, SVG Export Plug-In . SVG Version: 6.00 Build 0)  -->
<!DOCTYPE svg PUBLIC "-//W3C//DTD SVG 1.1//EN" "http://www.w3.org/Graphics/SVG/1.1/DTD/svg11.dtd">
<svg version="1.1" id="Capa_1" xmlns="http://www.w3.org/2000/svg" xmlns:xlink="http://www.w3.org/1999/xlink" x="0px" y="0px"
	 viewBox="0 0 73.508 73.508" style="enable-background:new 0 0 73.508 73.508;" xml:space="preserve">
<path style="fill:#231F20;" d="M36.672,43.035c-5.224,0-12.918-4.394-13.956-14.149c-1.533-0.771-3.675-2.781-3.568-6.415
	c0.02-0.675,0.08-2.73,1.542-3.282c1.444-0.548,2.928,0.934,3.211,1.236c0.377,0.404,0.356,1.037-0.047,1.414
	c-0.403,0.375-1.037,0.355-1.414-0.047c-0.339-0.358-0.858-0.708-1.068-0.722c0.015,0.034-0.193,0.359-0.225,1.46
	c-0.109,3.698,2.764,4.698,2.793,4.708c0.317,0.105,0.56,0.362,0.648,0.684l0.045,0.165c0.016,0.059,0.027,0.12,0.032,0.182
	c0.81,9.646,8.438,12.767,12.005,12.767s11.195-3.121,12.005-12.767c0.005-0.062,0.016-0.123,0.032-0.182l0.045-0.165
	c0.089-0.322,0.332-0.578,0.648-0.684c0.112-0.039,2.9-1.058,2.793-4.708c-0.036-1.234-0.292-1.494-0.295-1.496
	c-0.112,0.032-0.65,0.39-1,0.76c-0.379,0.4-1.011,0.418-1.413,0.042c-0.401-0.378-0.423-1.008-0.046-1.411
	c0.283-0.302,1.769-1.781,3.211-1.236c1.461,0.552,1.521,2.607,1.542,3.282c0.107,3.633-2.035,5.644-3.568,6.415
	C49.59,38.641,41.896,43.035,36.672,43.035z M23.127,37.37c0.538-0.124,0.874-0.661,0.75-1.199s-0.659-0.872-1.199-0.75
	C3.642,39.798,5.393,71.234,5.477,72.57c0.033,0.53,0.473,0.938,0.997,0.938c0.021,0,0.042-0.001,0.063-0.002
	c0.551-0.035,0.97-0.509,0.936-1.061C7.453,72.135,5.741,41.367,23.127,37.37z M21.613,18.075c0.552,0,1-0.448,1-1
	C22.613,12.542,23.983,2,36.672,2c12.688,0,14.059,10.542,14.059,15.075c0,0.552,0.448,1,1,1s1-0.448,1-1
	C52.731,13.069,51.573,0,36.672,0C21.771,0,20.613,13.069,20.613,17.075C20.613,17.627,21.061,18.075,21.613,18.075z M50.321,38.632
	c-0.542-0.038-1.027,0.382-1.063,0.933l-0.282,4.295l-3.452-1.621c-0.5-0.235-1.095-0.021-1.33,0.48
	c-0.235,0.5-0.02,1.095,0.48,1.33l4.779,2.243c0.135,0.063,0.28,0.095,0.425,0.095c0.176,0,0.352-0.046,0.508-0.139
	c0.285-0.168,0.468-0.466,0.49-0.796l0.378-5.757C51.29,39.145,50.872,38.669,50.321,38.632z M29.151,42.72
	c-0.235-0.5-0.831-0.714-1.33-0.48l-3.453,1.621l-0.282-4.295c-0.037-0.551-0.522-0.979-1.063-0.933
	c-0.551,0.037-0.969,0.513-0.933,1.063l0.378,5.757c0.022,0.33,0.205,0.628,0.49,0.796c0.156,0.092,0.332,0.139,0.508,0.139
	c0.145,0,0.29-0.031,0.425-0.095l4.779-2.243C29.171,43.815,29.386,43.22,29.151,42.72z M34.58,22.269
	c0,2.365-1.924,4.289-4.289,4.289s-4.289-1.924-4.289-4.289s1.924-4.289,4.289-4.289S34.58,19.904,34.58,22.269z M32.58,22.269
	c0-1.262-1.027-2.289-2.289-2.289s-2.289,1.027-2.289,2.289s1.027,2.289,2.289,2.289S32.58,23.53,32.58,22.269z M43.059,26.557
	c-2.365,0-4.289-1.924-4.289-4.289s1.924-4.289,4.289-4.289s4.289,1.924,4.289,4.289S45.424,26.557,43.059,26.557z M43.059,24.557
	c1.262,0,2.289-1.027,2.289-2.289s-1.027-2.289-2.289-2.289s-2.289,1.027-2.289,2.289S41.797,24.557,43.059,24.557z M29.842,57.969
	c-0.494-0.242-1.094-0.042-1.339,0.453c-0.089,0.181-2.188,4.485-2.188,9.854c0,0.882-0.28,1.557-0.856,2.063
	c-1.516,1.328-4.747,1.236-5.922,1.083c-0.375-0.028-3.671-0.37-3.671-3.603c0-4.63-1.561-11.833-1.627-12.137
	c-0.118-0.54-0.653-0.881-1.19-0.764c-0.54,0.118-0.881,0.651-0.764,1.19c0.016,0.072,1.582,7.294,1.582,11.71
	c0,4.135,3.62,5.47,5.468,5.592c0.073,0.01,0.746,0.096,1.694,0.096c1.656,0,4.149-0.264,5.746-1.661
	c1.023-0.895,1.542-2.096,1.542-3.57c0-4.885,1.962-8.928,1.982-8.969C30.54,58.813,30.336,58.213,29.842,57.969z M14.416,50.622
	c-0.48,0.272-0.649,0.883-0.376,1.363c2.333,4.114,2.368,9.686,2.368,9.741c0.001,0.552,0.448,0.999,1,0.999h0c0.552,0,1-0.447,1-1
	c0-0.249-0.03-6.146-2.628-10.727C15.506,50.517,14.896,50.349,14.416,50.622z M21.212,62.725c0.038,0,0.076-0.002,0.115-0.006
	c0.549-0.063,0.943-0.558,0.88-1.107c-0.135-1.182-1.394-11.63-4.074-14.46c-0.38-0.402-1.013-0.417-1.414-0.039
	c-0.401,0.38-0.418,1.013-0.039,1.414c1.884,1.989,3.193,10.283,3.539,13.312C20.278,62.349,20.711,62.725,21.212,62.725z
	 M24.526,62.725c0.003,0,0.006,0,0.009,0c0.552-0.005,0.996-0.457,0.991-1.009c-0.003-0.349-0.112-8.612-3.352-13.71
	c-0.297-0.466-0.916-0.604-1.38-0.308c-0.466,0.296-0.604,0.915-0.308,1.38c2.931,4.612,3.04,12.576,3.041,12.656
	C23.531,62.283,23.977,62.725,24.526,62.725z M60.014,54.918c-0.539-0.118-1.073,0.224-1.19,0.764
	c-0.066,0.304-1.627,7.507-1.627,12.137c0,3.202-3.304,3.572-3.732,3.609c-1.117,0.146-4.346,0.238-5.861-1.089
	c-0.576-0.505-0.856-1.18-0.856-2.063c0-5.369-2.099-9.674-2.188-9.854c-0.245-0.495-0.843-0.696-1.339-0.453
	c-0.495,0.244-0.698,0.844-0.455,1.339c0.02,0.041,1.981,4.084,1.981,8.969c0,1.474,0.519,2.675,1.542,3.57
	c1.602,1.401,4.105,1.662,5.746,1.662c0.932,0,1.585-0.084,1.637-0.092c1.911-0.145,5.525-1.502,5.525-5.598
	c0-4.414,1.565-11.638,1.582-11.71C60.895,55.569,60.553,55.036,60.014,54.918z M55.653,62.725L55.653,62.725
	c0.552,0,1-0.447,1-0.999c0-0.056,0.034-5.627,2.367-9.741c0.272-0.48,0.104-1.09-0.376-1.363c-0.481-0.273-1.09-0.104-1.363,0.376
	c-2.598,4.581-2.628,10.478-2.628,10.727C54.653,62.277,55.1,62.725,55.653,62.725z M54.927,47.152
	c-2.681,2.83-3.939,13.278-4.074,14.46c-0.063,0.549,0.332,1.044,0.88,1.107c0.039,0.004,0.077,0.006,0.115,0.006
	c0.501,0,0.934-0.376,0.992-0.887c0.345-3.028,1.655-11.322,3.539-13.312c0.38-0.401,0.363-1.034-0.039-1.414
	C55.94,46.734,55.308,46.749,54.927,47.152z M52.267,47.698c-0.465-0.295-1.083-0.158-1.38,0.308
	c-3.24,5.099-3.349,13.361-3.352,13.71c-0.005,0.552,0.439,1.003,0.991,1.009c0.003,0,0.006,0,0.009,0c0.548,0,0.995-0.442,1-0.991
	c0-0.08,0.109-8.044,3.041-12.656C52.871,48.612,52.733,47.994,52.267,47.698z M50.83,35.42c-0.538-0.123-1.075,0.212-1.199,0.75
	s0.212,1.075,0.75,1.199c17.386,3.998,15.673,34.765,15.654,35.075c-0.034,0.551,0.385,1.026,0.936,1.061
	c0.021,0.001,0.042,0.002,0.063,0.002c0.524,0,0.964-0.408,0.997-0.938C68.115,71.234,69.866,39.798,50.83,35.42z M36.603,38.386
	c1.922,0,3.48-1.558,3.48-3.48c0-1.922-1.558-3.48-3.48-3.48c-1.922,0-3.48,1.558-3.48,3.48
	C33.123,36.828,34.681,38.386,36.603,38.386z"/>
<g>
</g>
<g>
</g>
<g>
</g>
<g>
</g>
<g>
</g>
<g>
</g>
<g>
</g>
<g>
</g>
<g>
</g>
<g>
</g>
<g>
</g>
<g>
</g>
<g>
</g>
<g>
</g>
<g>
</g>
</svg>
