<?xml version="1.0" encoding="iso-8859-1"?>
<!-- Generator: Adobe Illustrator 18.0.0, SVG Export Plug-In . SVG Version: 6.00 Build 0)  -->
<!DOCTYPE svg PUBLIC "-//W3C//DTD SVG 1.1//EN" "http://www.w3.org/Graphics/SVG/1.1/DTD/svg11.dtd">
<svg version="1.1" id="Capa_1" xmlns="http://www.w3.org/2000/svg" xmlns:xlink="http://www.w3.org/1999/xlink" x="0px" y="0px"
	 viewBox="0 0 73.637 73.637" style="enable-background:new 0 0 73.637 73.637;" xml:space="preserve">
<path style="fill:#231F20;" d="M5.256,29.3c-1.714-0.571-4.919-2.91-4.778-7.675c0.022-0.766,0.091-3.096,1.7-3.704
	c1.597-0.604,3.27,1.07,3.59,1.412c0.377,0.404,0.356,1.037-0.047,1.414s-1.036,0.357-1.414-0.047
	c-0.505-0.535-1.219-0.949-1.425-0.906c0.003,0-0.358,0.3-0.405,1.891c-0.131,4.437,3.272,5.671,3.417,5.721
	c0.52,0.181,0.799,0.748,0.622,1.268c-0.141,0.416-0.528,0.679-0.944,0.679C5.466,29.351,5.36,29.335,5.256,29.3z M23.725,17.791
	h-3.25c-0.552,0-1,0.448-1,1s0.448,1,1,1h2.25v5.875c0,0.552,0.448,1,1,1s1-0.448,1-1v-6.875
	C24.725,18.239,24.277,17.791,23.725,17.791z M7.769,17.791c-0.552,0-1,0.448-1,1s0.448,1,1,1h10.456c0.552,0,1-0.448,1-1
	s-0.448-1-1-1H7.769z M3.17,8.603h11.596c5.967,0,6.253,3.711,6.263,3.886c0.023,0.536,0.465,0.957,0.999,0.957
	c0.011,0,0.023,0,0.035,0c0.552-0.019,0.984-0.481,0.965-1.034c-0.002-0.058-0.29-5.809-8.261-5.809H3.17c-0.552,0-1,0.448-1,1
	S2.617,8.603,3.17,8.603z M3.17,5.576h12.345c0.552,0,1-0.448,1-1s-0.448-1-1-1H3.17c-0.552,0-1,0.448-1,1S2.617,5.576,3.17,5.576z
	 M22.699,27.748c-0.552,0-1,0.448-1,1v2.471h-2.005c-0.278,0-0.543,0.117-0.732,0.32c-0.189,0.204-0.285,0.478-0.265,0.755
	c0.002,0.02,0.082,1.299-0.375,2.794c-1.922-0.463-4.723-1.54-4.723-2.986c0-0.552-0.448-1-1-1s-1,0.448-1,1
	c0,2.893,3.75,4.28,5.862,4.832c-0.177,0.267-0.376,0.529-0.607,0.777c-1.367,1.469-3.457,2.213-6.214,2.213c-0.552,0-1,0.448-1,1
	s0.448,1,1,1c3.345,0,5.934-0.965,7.695-2.869c1.826-1.975,2.26-4.446,2.35-5.837h2.015c0.552,0,1-0.448,1-1v-3.471
	C23.699,28.196,23.252,27.748,22.699,27.748z M4.55,44.128c-0.553-0.043-1.032,0.368-1.076,0.918
	c-0.043,0.551,0.368,1.032,0.918,1.076c0.104,0.008,10.389,0.908,10.389,8.804v17.711c0,0.552,0.448,1,1,1c0.552,0,1-0.448,1-1
	V54.926C16.782,47.145,8.78,44.46,4.55,44.128z M73.048,32.365c0-0.552-0.448-1-1-1H32.501c-0.552,0-1,0.448-1,1v40.271
	c0,0.552,0.448,1,1,1c0.552,0,1-0.448,1-1V33.365h38.547C72.6,33.365,73.048,32.918,73.048,32.365z M70.65,26.46
	c0.182,0.139,0.396,0.207,0.608,0.207c0.3,0,0.597-0.135,0.794-0.392c0.336-0.438,0.253-1.066-0.185-1.402L39.689,0.206
	c-0.438-0.335-1.066-0.253-1.402,0.185c-0.336,0.438-0.253,1.066,0.185,1.402L70.65,26.46z M34.13,30.014H70.07
	c0.427,0,0.806-0.271,0.945-0.674s0.007-0.851-0.329-1.114L40.322,4.46c-0.433-0.34-1.063-0.264-1.404,0.171
	c-0.34,0.435-0.264,1.063,0.171,1.404l28.081,21.979H34.13c-0.552,0-1,0.448-1,1S33.577,30.014,34.13,30.014z M73.164,48.368
	c0,0.552-0.448,1-1,1H71.07v16.796c0,0.552-0.448,1-1,1H38.317c-0.552,0-1-0.448-1-1V49.368h-1.094c-0.552,0-1-0.448-1-1
	s0.448-1,1-1h1.094v-6.252c0-0.552,0.448-1,1-1H70.07c0.552,0,1,0.448,1,1v6.252h1.094C72.716,47.368,73.164,47.816,73.164,48.368z
	 M39.317,47.368H69.07v-5.252H39.317V47.368z M69.07,49.368H39.317v15.796H69.07V49.368z M44.947,56.812h18.494c0.552,0,1-0.448,1-1
	s-0.448-1-1-1H44.947c-0.552,0-1,0.448-1,1S44.395,56.812,44.947,56.812z M63.441,59.465H44.947c-0.552,0-1,0.448-1,1s0.448,1,1,1
	h18.494c0.552,0,1-0.448,1-1S63.993,59.465,63.441,59.465z"/>
<g>
</g>
<g>
</g>
<g>
</g>
<g>
</g>
<g>
</g>
<g>
</g>
<g>
</g>
<g>
</g>
<g>
</g>
<g>
</g>
<g>
</g>
<g>
</g>
<g>
</g>
<g>
</g>
<g>
</g>
</svg>
