<?xml version="1.0" encoding="iso-8859-1"?>
<!-- Generator: Adobe Illustrator 18.0.0, SVG Export Plug-In . SVG Version: 6.00 Build 0)  -->
<!DOCTYPE svg PUBLIC "-//W3C//DTD SVG 1.1//EN" "http://www.w3.org/Graphics/SVG/1.1/DTD/svg11.dtd">
<svg version="1.1" id="Capa_1" xmlns="http://www.w3.org/2000/svg" xmlns:xlink="http://www.w3.org/1999/xlink" x="0px" y="0px"
	 viewBox="0 0 74.207 74.207" style="enable-background:new 0 0 74.207 74.207;" xml:space="preserve">
<path style="fill:#231F20;" d="M72.354,34.585h-4v-0.752c0-0.552-0.448-1-1-1s-1,0.448-1,1v0.752h-0.5v-0.752c0-0.552-0.448-1-1-1
	s-1,0.448-1,1v0.752H56.27V16.5h15.781c0.552,0,1-0.448,1-1V8.739c0-0.552-0.448-1-1-1h-9.156V5c0-0.552-0.448-1-1-1h-13.25
	c-0.552,0-1,0.448-1,1v2.739H28.854V1c0-0.552-0.448-1-1-1H9.52c-0.552,0-1,0.448-1,1v6.739H1.854c-0.552,0-1,0.448-1,1V15.5
	c0,0.552,0.448,1,1,1H8.52v45.75H1.854c-0.552,0-1,0.448-1,1v9.957c0,0.552,0.448,1,1,1h33.333c0.552,0,1-0.448,1-1V63.25
	c0-0.552-0.448-1-1-1h-6.333V16.5H54.27v18.085h-7.667v-0.752c0-0.552-0.448-1-1-1s-1,0.448-1,1v0.752h-0.5v-0.752
	c0-0.552-0.448-1-1-1s-1,0.448-1,1v0.752h-3.917c-0.552,0-1,0.448-1,1v3.199v0.382v2.817v0.382v2.818v0.382v3.199
	c0,0.552,0.448,1,1,1h3.917V50.5c0,0.552,0.448,1,1,1s1-0.448,1-1v-0.735h0.5V50.5c0,0.552,0.448,1,1,1s1-0.448,1-1v-0.735h7.667
	V50.5c0,0.552,0.448,1,1,1s1-0.448,1-1v-0.735h7.583V50.5c0,0.552,0.448,1,1,1s1-0.448,1-1v-0.735h0.5V50.5c0,0.552,0.448,1,1,1
	s1-0.448,1-1v-0.735h4c0.552,0,1-0.448,1-1v-3.199v-0.382v-2.818v-0.382v-2.817v-0.382v-3.199
	C73.354,35.033,72.906,34.585,72.354,34.585z M71.051,14.5H56.27V9.739h5.625h9.156V14.5z M49.645,6h11.25v1.739h-11.25V6z M10.52,2
	h16.333v5.739H10.52V2z M10.52,36.715l13.412,7.315H10.52V36.715z M10.52,26.95l13.412,7.315H10.52V26.95z M26.854,46.03v7.081
	L13.872,46.03H26.854z M13.872,36.265h12.981v7.081L13.872,36.265z M13.872,26.5h12.981v7.081L13.872,26.5z M10.52,46.48
	l13.412,7.315H10.52V46.48z M10.52,24.5v-7.315L23.932,24.5H10.52z M10.52,56.987l9.662,5.263H10.52V56.987z M34.187,72.207H2.854
	V64.25H9.52h18.333h6.333V72.207z M24.362,62.25l-11.849-6.455h14.341v6.455H24.362z M26.854,23.815L13.442,16.5h13.412V23.815z
	 M2.854,14.5V9.739h45.792h5.625V14.5H2.854z M56.27,40.984v-0.817h7.583v0.817H56.27z M54.27,40.984h-7.667v-0.817h7.667V40.984z
	 M54.27,43.366v0.818h-7.667v-0.818H54.27z M56.27,43.366h7.583v0.818H56.27V43.366z M65.854,40.984v-0.817h0.5v0.817H65.854z
	 M44.604,40.167v0.817h-0.5v-0.817H44.604z M44.604,43.366v0.818h-0.5v-0.818H44.604z M65.854,44.184v-0.818h0.5v0.818H65.854z
	 M68.354,40.984v-0.817h3v0.817H68.354z M42.104,40.167v0.817h-2.917v-0.817H42.104z M39.187,43.366h2.917v0.818h-2.917V43.366z
	 M68.354,44.184v-0.818h3v0.818H68.354z M71.354,36.585v1.199h-3v-1.199H71.354z M66.354,36.585v1.199h-0.5v-1.199H66.354z
	 M63.854,36.585v1.199H56.27v-1.199H63.854z M54.27,36.585v1.199h-7.667v-1.199H54.27z M44.604,36.585v1.199h-0.5v-1.199H44.604z
	 M42.104,36.585v1.199h-2.917v-1.199H42.104z M39.187,47.765v-1.199h2.917v1.199H39.187z M44.104,47.765v-1.199h0.5v1.199H44.104z
	 M46.604,47.765v-1.199h7.667v1.199H46.604z M56.27,47.765v-1.199h7.583v1.199H56.27z M65.854,47.765v-1.199h0.5v1.199H65.854z
	 M68.354,47.765v-1.199h3v1.199H68.354z"/>
<g>
</g>
<g>
</g>
<g>
</g>
<g>
</g>
<g>
</g>
<g>
</g>
<g>
</g>
<g>
</g>
<g>
</g>
<g>
</g>
<g>
</g>
<g>
</g>
<g>
</g>
<g>
</g>
<g>
</g>
</svg>
