<?xml version="1.0" encoding="iso-8859-1"?>
<!-- Generator: Adobe Illustrator 18.0.0, SVG Export Plug-In . SVG Version: 6.00 Build 0)  -->
<!DOCTYPE svg PUBLIC "-//W3C//DTD SVG 1.1//EN" "http://www.w3.org/Graphics/SVG/1.1/DTD/svg11.dtd">
<svg version="1.1" id="Capa_1" xmlns="http://www.w3.org/2000/svg" xmlns:xlink="http://www.w3.org/1999/xlink" x="0px" y="0px"
	 viewBox="0 0 73.845 73.845" style="enable-background:new 0 0 73.845 73.845;" xml:space="preserve">
<path style="fill:#231F20;" d="M24.732,13.881c3.834,0.857,7.771,1.292,11.7,1.292s7.866-0.435,11.727-1.298
	c0.483-0.121,0.804-0.579,0.752-1.074c-0.55-5.279-4.272-9.629-9.04-11.074V1c0-0.552-0.447-1-1-1s-1,0.448-1,1v0.314
	c-0.475-0.059-0.954-0.099-1.44-0.099c-0.486,0-0.964,0.04-1.438,0.098V1c0-0.552-0.447-1-1-1s-1,0.448-1,1v0.727
	c-4.767,1.445-8.49,5.795-9.039,11.074C23.901,13.306,24.237,13.771,24.732,13.881z M32.993,3.84v2.043c0,0.552,0.447,1,1,1
	s1-0.448,1-1V3.332c0.474-0.07,0.953-0.117,1.441-0.117c0.486,0,0.964,0.047,1.437,0.116v2.552c0,0.552,0.447,1,1,1s1-0.448,1-1
	V3.839c3.476,1.281,6.2,4.427,6.923,8.283c-6.817,1.396-13.944,1.39-20.723,0C26.792,8.267,29.516,5.122,32.993,3.84z
	 M36.432,11.981c-1.59,0-3.183-0.176-4.735-0.523c-0.403-0.09-0.658-0.491-0.567-0.896c0.089-0.405,0.49-0.657,0.896-0.568
	c2.889,0.646,5.925,0.646,8.813,0c0.403-0.088,0.806,0.164,0.896,0.568c0.09,0.404-0.165,0.805-0.568,0.896
	C39.614,11.805,38.021,11.981,36.432,11.981z M23.437,18.249c0.017-0.536,0.064-2.165,1.297-2.631
	c1.207-0.458,2.401,0.725,2.628,0.967c0.377,0.404,0.355,1.037-0.048,1.414c-0.4,0.377-1.034,0.357-1.413-0.047
	c-0.109-0.116-0.261-0.239-0.392-0.326c-0.032,0.143-0.063,0.361-0.072,0.683c-0.071,2.396,1.652,3.083,1.85,3.153
	c0.307,0.109,0.551,0.365,0.638,0.679l0.033,0.12c0.017,0.06,0.027,0.121,0.032,0.183c0.572,6.813,5.935,9.017,8.442,9.017
	c2.507,0,7.869-2.204,8.441-9.017c0.005-0.062,0.016-0.123,0.032-0.183l0.033-0.12c0.089-0.321,0.332-0.577,0.647-0.682
	c0.188-0.067,1.911-0.753,1.84-3.149c-0.009-0.322-0.04-0.54-0.072-0.683c-0.138,0.092-0.294,0.222-0.392,0.326
	c-0.379,0.403-1.012,0.423-1.413,0.047c-0.403-0.377-0.425-1.01-0.048-1.414c0.227-0.242,1.423-1.424,2.628-0.967
	c1.232,0.466,1.28,2.095,1.297,2.631c0.078,2.668-1.44,4.196-2.608,4.838c-0.831,7.149-6.517,10.372-10.386,10.372
	c-3.87,0-9.556-3.223-10.387-10.372C24.878,22.445,23.359,20.917,23.437,18.249z M28.19,18.289h16.485
	c0,8.838-8.242,3.836-8.242,3.836S28.19,27.189,28.19,18.289z M68.511,54.263c-0.189-0.207-0.457-0.325-0.737-0.325h-6.707v-5.713
	l0.138,0c2.583,0,4.684-2.101,4.684-4.684s-2.101-4.684-4.684-4.684l-6.059-0.002c-0.164,0-0.349,0.001-0.545,0.007
	c-1.77-2.622-4.874-5.023-7.916-6.103l0.026-0.47c0.03-0.551-0.392-1.023-0.943-1.053c-0.544-0.034-1.023,0.393-1.053,0.944
	l-0.177,3.215L42.633,34.5c-0.504-0.236-1.097-0.019-1.33,0.48c-0.234,0.5-0.02,1.095,0.48,1.33l3.247,1.524
	c0.135,0.063,0.28,0.095,0.425,0.095c0.178,0,0.355-0.047,0.513-0.142c0.285-0.17,0.468-0.472,0.485-0.804l0.117-2.124
	c2.208,0.918,4.458,2.617,5.921,4.479c-0.837,0.436-1.562,1.274-1.82,2.87H22.756c-0.029,0-0.057,0.007-0.086,0.009
	c-0.279-1.737-1.109-2.583-2.036-2.986c1.514-1.955,3.513-3.472,5.758-4.378l0.116,2.129c0.018,0.332,0.199,0.633,0.485,0.804
	c0.157,0.094,0.335,0.142,0.513,0.142c0.145,0,0.29-0.031,0.425-0.095l3.248-1.524c0.5-0.235,0.715-0.83,0.48-1.33
	c-0.233-0.499-0.826-0.717-1.33-0.48l-1.905,0.895l-0.177-3.215c-0.029-0.551-0.51-0.979-1.053-0.944
	c-0.552,0.03-0.974,0.501-0.943,1.053l0.026,0.469c-3.152,1.111-5.924,3.265-7.838,6.099c-0.086-0.001-0.17-0.001-0.247-0.001
	l-6.058,0.002c-2.583,0-4.684,2.101-4.684,4.684s2.101,4.684,4.684,4.684l0.396,0v5.713h-6.46c-0.28,0-0.548,0.118-0.737,0.325
	s-0.283,0.484-0.259,0.764C6.136,66.995,15.08,73.397,15.46,73.664c0.175,0.123,0.375,0.181,0.573,0.181
	c0.315,0,0.625-0.148,0.819-0.426c0.317-0.452,0.208-1.076-0.244-1.393c-0.068-0.047-5.409-3.88-8.107-10.975H65.34
	c-2.699,7.078-8.036,10.928-8.104,10.976c-0.451,0.318-0.56,0.941-0.242,1.393c0.317,0.451,0.938,0.56,1.392,0.244
	c0.38-0.267,9.323-6.669,10.385-18.637C68.795,54.748,68.701,54.47,68.511,54.263z M59.067,53.938h-1.163v-5.712l1.163,0V53.938z
	 M17.694,53.938v-5.711l0.498,0c1.285,0,3.768-0.007,4.419-3.032c0.048,0.005,0.095,0.015,0.145,0.015h27.972
	c0.219,1.036,0.664,1.799,1.355,2.3c0.914,0.662,2.015,0.718,3.064,0.718l0.758,0v5.711H17.694z M61.205,40.858
	c1.479,0,2.684,1.204,2.684,2.684c0,0.992-0.548,1.851-1.351,2.315v-1.398c0-0.552-0.447-1-1-1s-1,0.448-1,1v1.766l-1.053,0v-1.767
	c0-0.552-0.447-1-1-1s-1,0.448-1,1v1.768l-1.163,0v-1.768c0-0.552-0.447-1-1-1s-1,0.448-1,1v1.736
	c-0.42-0.036-0.804-0.114-1.066-0.304c-0.458-0.333-0.69-1.123-0.69-2.349c0-2.686,0.972-2.686,2.581-2.686L61.205,40.858z
	 M9.451,43.542c0-1.48,1.204-2.684,2.684-2.684l6.058-0.002c1.61,0,2.582,0,2.582,2.686c0,2.19-0.646,2.594-1.758,2.669v-1.751
	c0-0.552-0.447-1-1-1s-1,0.448-1,1v1.768l-1.163,0v-1.768c0-0.552-0.447-1-1-1s-1,0.448-1,1v1.767l-1.053,0v-1.766
	c0-0.552-0.447-1-1-1s-1,0.448-1,1v1.397C9.998,45.392,9.451,44.534,9.451,43.542z M14.531,48.227l1.163,0v5.711h-1.163V48.227z
	 M66.256,58.051H7.673c-0.029,0-0.056,0.007-0.084,0.008c-0.16-0.686-0.299-1.388-0.399-2.121h59.467
	c-0.1,0.73-0.239,1.43-0.399,2.113C66.257,58.051,66.256,58.051,66.256,58.051z M36.432,36.901c0.553,0,1,0.448,1,1v2.732
	c0,0.552-0.447,1-1,1s-1-0.448-1-1v-2.732C35.432,37.349,35.88,36.901,36.432,36.901z M37.432,46.8v5.447c0,0.552-0.447,1-1,1
	s-1-0.448-1-1V46.8c0-0.552,0.447-1,1-1S37.432,46.248,37.432,46.8z"/>
<g>
</g>
<g>
</g>
<g>
</g>
<g>
</g>
<g>
</g>
<g>
</g>
<g>
</g>
<g>
</g>
<g>
</g>
<g>
</g>
<g>
</g>
<g>
</g>
<g>
</g>
<g>
</g>
<g>
</g>
</svg>
