<?xml version="1.0" encoding="iso-8859-1"?>
<!-- Generator: Adobe Illustrator 18.0.0, SVG Export Plug-In . SVG Version: 6.00 Build 0)  -->
<!DOCTYPE svg PUBLIC "-//W3C//DTD SVG 1.1//EN" "http://www.w3.org/Graphics/SVG/1.1/DTD/svg11.dtd">
<svg version="1.1" id="Capa_1" xmlns="http://www.w3.org/2000/svg" xmlns:xlink="http://www.w3.org/1999/xlink" x="0px" y="0px"
	 viewBox="0 0 74.742 74.742" style="enable-background:new 0 0 74.742 74.742;" xml:space="preserve">
<path style="fill:#231F20;" d="M74.209,57.38c-0.032-0.132-3.384-13.156-15.569-13.156h-2.388l-17.942-15.48
	c-0.137-0.118-0.311-0.182-0.49-0.182H2.336c-0.414,0-0.75,0.336-0.75,0.75s0.336,0.75,0.75,0.75h19.729l-6.824,14.163H2.336
	c-0.553,0-1,0.448-1,1s0.447,1,1,1H58.64c0.264,0,0.52,0.011,0.774,0.024c0.151,2.737,1.109,4.884,2.873,6.376
	c2.253,1.904,5.28,2.279,7.316,2.279c0.619,0,1.144-0.035,1.53-0.071c0.671,1.416,1.005,2.547,1.105,2.916v2.721
	c-1.683,0.25-3.777,1.681-3.777,5.051c0,3.37,2.094,4.801,3.777,5.051v0.492H52.854c0.096-0.734,0.144-1.478,0.144-2.222
	c0-3.84-1.296-7.374-3.454-10.222h19.098c0.553,0,1-0.448,1-1s-0.447-1-1-1H47.775c-3.057-2.942-7.203-4.762-11.777-4.762
	c-4.566,0-8.708,1.82-11.763,4.762H1.503c-0.553,0-1,0.448-1,1s0.447,1,1,1h20.965c-2.157,2.848-3.453,6.382-3.453,10.222
	c0,0.744,0.048,1.488,0.144,2.222H1.503c-0.553,0-1,0.448-1,1s0.447,1,1,1h18.836c0.301,0,0.585-0.135,0.774-0.368
	c0.19-0.233,0.266-0.539,0.205-0.833c-0.201-0.985-0.304-2.002-0.304-3.021c0-7.602,5.696-13.886,13.054-14.843v0.803h1.229v6.61
	h-1.5c-0.414,0-0.75,0.336-0.75,0.75v4.584l-6.143-2.986c-0.374-0.184-0.821-0.025-1.003,0.347
	c-0.181,0.372-0.025,0.821,0.347,1.002l6.799,3.305v3.649h-1.292v2.679h8.5v-2.679h-1.292v-9.901c0-0.414-0.336-0.75-0.75-0.75h-1.5
	v-6.61h1.229v-0.805c7.352,0.952,13.054,7.238,13.054,14.845c0,1.019-0.103,2.036-0.304,3.021c-0.061,0.294,0.015,0.6,0.205,0.833
	c0.189,0.232,0.474,0.368,0.774,0.368h21.565c0.553,0,1-0.448,1-1V57.62C74.239,57.539,74.229,57.458,74.209,57.38z M53.956,44.224
	H20.225l0.792-1.644h25.727c0.313,0,0.594-0.194,0.703-0.488s0.024-0.624-0.212-0.829l-11.083-9.602
	c-0.137-0.118-0.311-0.183-0.491-0.183h-9.294l0.683-1.417h10.493L53.956,44.224z M23.347,37.744
	c0.057,0.014,0.112,0.035,0.173,0.035h9.584c0.414,0,0.75-0.336,0.75-0.75s-0.336-0.75-0.75-0.75h-9.051l1.59-3.301h9.738
	l9.352,8.102H21.74L23.347,37.744z M23.731,30.062h1.653L18.56,44.224h-1.653L23.731,30.062z M37.464,72.063h-2.916v-2.92
	l1.13,0.549c0.105,0.052,0.218,0.076,0.327,0.076c0.278,0,0.546-0.155,0.676-0.422c0.181-0.372,0.025-0.821-0.347-1.002
	l-1.786-0.868v-4.563h2.916V72.063z M63.573,51.091c-1.247-1.057-1.962-2.598-2.141-4.586c4.287,0.889,7.002,3.752,8.642,6.385
	C68.379,52.943,65.525,52.748,63.573,51.091z M70.461,65.521c0-2.151,1.093-2.806,1.777-3.006v6.011
	C71.555,68.326,70.461,67.671,70.461,65.521z M9.603,50.443c-0.414,0-0.75-0.336-0.75-0.75s0.336-0.75,0.75-0.75h7.266
	c0.414,0,0.75,0.336,0.75,0.75s-0.336,0.75-0.75,0.75H9.603z M20.451,27.086c7.468,0,13.543-6.075,13.543-13.543S27.918,0,20.451,0
	S6.908,6.075,6.908,13.543S12.983,27.086,20.451,27.086z M20.451,1.5c6.641,0,12.043,5.402,12.043,12.043
	s-5.402,12.043-12.043,12.043S8.408,20.184,8.408,13.543S13.81,1.5,20.451,1.5z M20.451,20.159c3.648,0,6.616-2.968,6.616-6.616
	s-2.968-6.616-6.616-6.616s-6.616,2.968-6.616,6.616S16.802,20.159,20.451,20.159z M20.451,8.427c2.821,0,5.116,2.295,5.116,5.116
	s-2.295,5.116-5.116,5.116s-5.116-2.295-5.116-5.116S17.629,8.427,20.451,8.427z M20.451,21.904c4.61,0,8.361-3.75,8.361-8.361
	s-3.751-8.361-8.361-8.361s-8.36,3.75-8.36,8.361S15.84,21.904,20.451,21.904z M20.451,6.182c4.059,0,7.361,3.302,7.361,7.361
	s-3.303,7.361-7.361,7.361s-7.36-3.302-7.36-7.361S16.392,6.182,20.451,6.182z M19.743,9.887c0-0.391,0.317-0.708,0.708-0.708
	s0.708,0.317,0.708,0.708c0,0.391-0.317,0.708-0.708,0.708S19.743,10.278,19.743,9.887z M22.535,11.458
	c-0.277-0.277-0.277-0.725,0-1.002c0.277-0.277,0.725-0.277,1.002,0c0.277,0.277,0.277,0.725,0,1.002
	C23.26,11.735,22.812,11.735,22.535,11.458z M24.107,12.834c0.391,0,0.708,0.317,0.708,0.708c0,0.391-0.317,0.708-0.708,0.708
	c-0.391,0-0.708-0.317-0.708-0.708C23.399,13.152,23.716,12.834,24.107,12.834z M22.535,16.629c-0.277-0.277-0.277-0.725,0-1.002
	s0.725-0.277,1.002,0c0.277,0.277,0.277,0.725,0,1.002C23.26,16.906,22.812,16.906,22.535,16.629z M19.743,17.199
	c0-0.391,0.317-0.708,0.708-0.708s0.708,0.317,0.708,0.708c0,0.391-0.317,0.708-0.708,0.708S19.743,17.59,19.743,17.199z
	 M18.366,15.627c0.277,0.277,0.277,0.725,0,1.002s-0.725,0.277-1.002,0c-0.277-0.277-0.277-0.725,0-1.002
	C17.641,15.351,18.09,15.351,18.366,15.627z M16.795,14.251c-0.391,0-0.708-0.317-0.708-0.708c0-0.391,0.317-0.708,0.708-0.708
	c0.391,0,0.708,0.317,0.708,0.708C17.503,13.934,17.186,14.251,16.795,14.251z M17.365,11.458c-0.277-0.277-0.277-0.725,0-1.002
	c0.277-0.277,0.725-0.277,1.002,0c0.277,0.277,0.277,0.725,0,1.002S17.641,11.735,17.365,11.458z M54.368,27.086
	c7.468,0,13.543-6.075,13.543-13.543S61.835,0,54.368,0S40.825,6.075,40.825,13.543S46.9,27.086,54.368,27.086z M54.368,1.5
	c6.641,0,12.043,5.402,12.043,12.043s-5.402,12.043-12.043,12.043s-12.043-5.402-12.043-12.043S47.727,1.5,54.368,1.5z
	 M54.368,20.159c3.648,0,6.616-2.968,6.616-6.616s-2.968-6.616-6.616-6.616s-6.616,2.968-6.616,6.616S50.719,20.159,54.368,20.159z
	 M54.368,8.427c2.821,0,5.116,2.295,5.116,5.116s-2.295,5.116-5.116,5.116s-5.116-2.295-5.116-5.116S51.546,8.427,54.368,8.427z
	 M54.368,21.904c4.61,0,8.361-3.75,8.361-8.361s-3.751-8.361-8.361-8.361s-8.36,3.75-8.36,8.361S49.757,21.904,54.368,21.904z
	 M54.368,6.182c4.059,0,7.361,3.302,7.361,7.361s-3.303,7.361-7.361,7.361s-7.36-3.302-7.36-7.361S50.309,6.182,54.368,6.182z
	 M53.659,9.887c0-0.391,0.317-0.708,0.708-0.708c0.391,0,0.708,0.317,0.708,0.708c0,0.391-0.317,0.708-0.708,0.708
	C53.977,10.595,53.659,10.278,53.659,9.887z M56.452,11.458c-0.277-0.277-0.277-0.725,0-1.002c0.277-0.277,0.725-0.277,1.002,0
	c0.277,0.277,0.277,0.725,0,1.002S56.729,11.735,56.452,11.458z M58.024,12.834c0.391,0,0.708,0.317,0.708,0.708
	c0,0.391-0.317,0.708-0.708,0.708c-0.391,0-0.708-0.317-0.708-0.708C57.316,13.152,57.633,12.834,58.024,12.834z M56.452,16.629
	c-0.277-0.277-0.277-0.725,0-1.002c0.277-0.277,0.725-0.277,1.002,0s0.277,0.725,0,1.002S56.729,16.906,56.452,16.629z
	 M53.659,17.199c0-0.391,0.317-0.708,0.708-0.708c0.391,0,0.708,0.317,0.708,0.708c0,0.391-0.317,0.708-0.708,0.708
	C53.977,17.907,53.659,17.59,53.659,17.199z M52.283,15.627c0.277,0.277,0.277,0.725,0,1.002c-0.277,0.277-0.725,0.277-1.002,0
	s-0.277-0.725,0-1.002S52.007,15.351,52.283,15.627z M50.711,14.251c-0.391,0-0.708-0.317-0.708-0.708
	c0-0.391,0.317-0.708,0.708-0.708c0.391,0,0.708,0.317,0.708,0.708C51.42,13.934,51.103,14.251,50.711,14.251z M51.281,11.458
	c-0.277-0.277-0.277-0.725,0-1.002c0.277-0.277,0.725-0.277,1.002,0c0.277,0.277,0.277,0.725,0,1.002
	C52.007,11.735,51.558,11.735,51.281,11.458z"/>
<g>
</g>
<g>
</g>
<g>
</g>
<g>
</g>
<g>
</g>
<g>
</g>
<g>
</g>
<g>
</g>
<g>
</g>
<g>
</g>
<g>
</g>
<g>
</g>
<g>
</g>
<g>
</g>
<g>
</g>
</svg>
