<?xml version="1.0" encoding="iso-8859-1"?>
<!-- Generator: Adobe Illustrator 18.0.0, SVG Export Plug-In . SVG Version: 6.00 Build 0)  -->
<!DOCTYPE svg PUBLIC "-//W3C//DTD SVG 1.1//EN" "http://www.w3.org/Graphics/SVG/1.1/DTD/svg11.dtd">
<svg version="1.1" id="Capa_1" xmlns="http://www.w3.org/2000/svg" xmlns:xlink="http://www.w3.org/1999/xlink" x="0px" y="0px"
	 viewBox="0 0 75.75 75.75" style="enable-background:new 0 0 75.75 75.75;" xml:space="preserve">
<path style="fill:#231F20;" d="M14.781,22.474c4.937,1.104,9.757,1.654,14.552,1.654c3.674,0,7.332-0.324,11.013-0.969
	c0.544-0.095,0.907-0.614,0.813-1.158c-0.097-0.544-0.615-0.907-1.158-0.812c-2.282,0.4-4.555,0.658-6.83,0.802
	c0.558-0.779,0.896-1.726,0.896-2.755c0-2.62-2.132-4.751-4.752-4.751s-4.751,2.131-4.751,4.751c0,1.032,0.34,1.982,0.901,2.762
	c-3.087-0.196-6.195-0.618-9.351-1.281c0.867-5.125,4.519-9.293,9.161-10.863v2.891c0,0.552,0.447,1,1,1s1-0.448,1-1V9.351
	c0.668-0.11,1.347-0.179,2.038-0.179h0.002c0.002,0,0.003,0,0.005,0c0.726,0,1.393,0.053,2.036,0.131v3.441c0,0.552,0.447,1,1,1
	s1-0.448,1-1v-3.03c2.24,0.685,4.11,2.072,6.198,4.483c0.362,0.418,0.995,0.462,1.41,0.101c0.418-0.361,0.463-0.993,0.102-1.411
	c-2.527-2.917-4.847-4.548-7.71-5.266V6.656c0-0.552-0.447-1-1-1s-1,0.448-1,1v0.62c-0.647-0.068-1.322-0.104-2.036-0.104
	c-0.002,0-0.006-0.001-0.008,0c-0.69,0-1.367,0.066-2.037,0.162V6.656c0-0.552-0.447-1-1-1s-1,0.448-1,1v1.098
	c-5.934,1.718-10.589,7.093-11.27,13.64C13.952,21.899,14.286,22.363,14.781,22.474z M29.313,16.485
	c1.518,0,2.752,1.234,2.752,2.751s-1.234,2.751-2.752,2.751c-1.517,0-2.751-1.234-2.751-2.751S27.797,16.485,29.313,16.485z
	 M16.596,32.608c0.967,8.851,7.964,12.839,12.718,12.839c3.366,0,9.267-2.312,11.729-8.679c0.199-0.515-0.057-1.094-0.572-1.293
	c-0.513-0.199-1.094,0.057-1.293,0.572c-0.751,1.942-1.869,3.434-3.12,4.559c0.072-0.639,0.144-1.266,0.216-1.892
	c0.116-1.014,0.234-2.041,0.353-3.11l3.223-0.661c0.541-0.111,0.89-0.64,0.778-1.181c-0.11-0.541-0.633-0.891-1.181-0.778
	l-3.795,0.779c-4.201-0.451-8.458-0.451-12.659-0.001l-4.352-1.048c-0.032-0.245-0.075-0.478-0.097-0.733
	c-0.005-0.062-0.016-0.122-0.032-0.181l-0.041-0.149c-0.088-0.322-0.331-0.579-0.647-0.684c-0.026-0.008-2.56-0.891-2.463-4.168
	c0.021-0.723,0.127-1.063,0.19-1.204c0.211,0.081,0.572,0.342,0.814,0.598c0.379,0.404,1.012,0.424,1.413,0.047
	c0.403-0.377,0.425-1.01,0.048-1.414c-0.264-0.281-1.644-1.66-3.01-1.143c-1.381,0.522-1.438,2.429-1.456,3.056
	C13.264,30.037,15.188,31.88,16.596,32.608z M34.607,35.663c-0.109,0.969-0.215,1.896-0.321,2.822
	c-0.137,1.193-0.275,2.391-0.417,3.674c-1.649,0.9-3.311,1.288-4.556,1.288c-1.183,0-2.863-0.386-4.547-1.306
	c-0.144-1.305-0.284-2.503-0.424-3.696c-0.106-0.911-0.213-1.821-0.321-2.782C27.536,35.337,31.09,35.337,34.607,35.663z
	 M21.999,35.578c0.12,1.072,0.239,2.093,0.357,3.098c0.074,0.63,0.147,1.262,0.221,1.908c-1.492-1.334-2.799-3.19-3.513-5.712
	L21.999,35.578z M18.354,43.871c0.168,0.526-0.123,1.088-0.647,1.257C17.064,45.334,2,50.385,2,69.094c0,0.552-0.447,1-1,1
	s-1-0.448-1-1C0,48.89,16.928,43.276,17.099,43.222C17.621,43.055,18.186,43.345,18.354,43.871z M14.063,65.233v3.861
	c0,0.552-0.447,1-1,1s-1-0.448-1-1v-3.861c0-0.552,0.447-1,1-1S14.063,64.68,14.063,65.233z M43.604,62.917v6.177
	c0,0.552-0.447,1-1,1s-1-0.448-1-1v-6.177c0-0.552,0.447-1,1-1S43.604,62.365,43.604,62.917z M73.472,24.781
	c0.078,0.583,1.831,14.388-6.317,23.709c-4.697,5.373-11.702,8.097-20.819,8.097c-0.553,0-1-0.448-1-1s0.447-1,1-1
	c8.515,0,15.013-2.494,19.313-7.413c7.558-8.645,5.859-21.992,5.841-22.125c-0.073-0.547,0.311-1.051,0.857-1.125
	C72.909,23.849,73.398,24.234,73.472,24.781z M64.683,33.139c-0.522-0.177-0.803-0.745-0.626-1.268
	c0.691-2.041,1.042-4.381,1.042-6.957c0-0.552,0.447-1,1-1s1,0.448,1,1c0,2.794-0.386,5.351-1.147,7.598
	c-0.142,0.417-0.53,0.68-0.947,0.68C64.897,33.193,64.789,33.176,64.683,33.139z M56.195,42.841
	c-4.165,1.788-8.604,2.168-11.63,2.168c-2.133,0-3.563-0.189-3.701-0.208c-0.547-0.075-0.929-0.58-0.854-1.126
	c0.074-0.547,0.575-0.933,1.126-0.855c0.075,0.011,7.694,1.006,14.27-1.817c0.508-0.218,1.095,0.016,1.313,0.524
	C56.938,42.035,56.703,42.623,56.195,42.841z M69.108,8.793c-1.816,0-6.643,0-6.643,4.714v2.308c0,3.662,2.979,6.642,6.643,6.642
	c3.662,0,6.642-2.979,6.642-6.642v-2.308C75.75,8.793,70.925,8.793,69.108,8.793z M73.75,15.815c0,2.56-2.082,4.642-4.642,4.642
	s-4.643-2.082-4.643-4.642v-2.308c0-1.675,0.776-2.714,4.643-2.714c3.865,0,4.642,1.039,4.642,2.714V15.815z M38.776,47.021
	c0.385,0.396,0.375,1.03-0.021,1.414c-2.738,2.653-6.253,3.98-9.767,3.98c-3.515,0-7.027-1.327-9.766-3.98
	c-0.396-0.385-0.406-1.018-0.021-1.414c0.385-0.398,1.018-0.406,1.414-0.022c4.694,4.552,12.053,4.551,16.747,0
	C37.759,46.615,38.394,46.623,38.776,47.021z M42.247,22.873v-0.778c0-0.565,0.463-1.028,1.028-1.028H60.34
	c0.565,0,1.028,0.463,1.028,1.028v0.778c0,0.565-0.463,1.028-1.028,1.028H43.275C42.709,23.901,42.247,23.438,42.247,22.873z
	 M42.247,26.699v-0.778c0-0.565,0.463-1.028,1.028-1.028H60.34c0.565,0,1.028,0.463,1.028,1.028v0.778
	c0,0.565-0.463,1.028-1.028,1.028H43.275C42.709,27.727,42.247,27.264,42.247,26.699z M42.247,30.525v-0.778
	c0-0.565,0.463-1.028,1.028-1.028H60.34c0.565,0,1.028,0.463,1.028,1.028v0.778c0,0.565-0.463,1.028-1.028,1.028H43.275
	C42.709,31.553,42.247,31.09,42.247,30.525z M42.247,34.351v-0.778c0-0.565,0.463-1.028,1.028-1.028H60.34
	c0.565,0,1.028,0.463,1.028,1.028v0.778c0,0.565-0.463,1.028-1.028,1.028H43.275C42.709,35.379,42.247,34.916,42.247,34.351z
	 M42.247,38.177v-0.778c0-0.565,0.463-1.028,1.028-1.028H60.34c0.565,0,1.028,0.463,1.028,1.028v0.778
	c0,0.565-0.463,1.028-1.028,1.028H43.275C42.709,39.205,42.247,38.742,42.247,38.177z M42.247,7.533V6.755
	c0-0.565,0.463-1.028,1.028-1.028H60.34c0.565,0,1.028,0.463,1.028,1.028v0.778c0,0.565-0.463,1.028-1.028,1.028H43.275
	C42.709,8.561,42.247,8.099,42.247,7.533z M42.247,11.359v-0.778c0-0.565,0.463-1.028,1.028-1.028H60.34
	c0.565,0,1.028,0.463,1.028,1.028v0.778c0,0.565-0.463,1.028-1.028,1.028H43.275C42.709,12.387,42.247,11.925,42.247,11.359z
	 M42.247,15.185v-0.778c0-0.565,0.463-1.028,1.028-1.028H60.34c0.565,0,1.028,0.463,1.028,1.028v0.778
	c0,0.565-0.463,1.028-1.028,1.028H43.275C42.709,16.213,42.247,15.751,42.247,15.185z M42.247,19.011v-0.778
	c0-0.565,0.463-1.028,1.028-1.028H60.34c0.565,0,1.028,0.463,1.028,1.028v0.778c0,0.565-0.463,1.028-1.028,1.028H43.275
	C42.709,20.039,42.247,19.577,42.247,19.011z"/>
<g>
</g>
<g>
</g>
<g>
</g>
<g>
</g>
<g>
</g>
<g>
</g>
<g>
</g>
<g>
</g>
<g>
</g>
<g>
</g>
<g>
</g>
<g>
</g>
<g>
</g>
<g>
</g>
<g>
</g>
</svg>
