<?xml version="1.0" encoding="iso-8859-1"?>
<!-- Generator: Adobe Illustrator 18.0.0, SVG Export Plug-In . SVG Version: 6.00 Build 0)  -->
<!DOCTYPE svg PUBLIC "-//W3C//DTD SVG 1.1//EN" "http://www.w3.org/Graphics/SVG/1.1/DTD/svg11.dtd">
<svg version="1.1" id="Capa_1" xmlns="http://www.w3.org/2000/svg" xmlns:xlink="http://www.w3.org/1999/xlink" x="0px" y="0px"
	 viewBox="0 0 75.086 75.086" style="enable-background:new 0 0 75.086 75.086;" xml:space="preserve">
<path style="fill:#231F20;" d="M25.376,48.751c-0.028-0.056-0.039-0.12-0.071-0.174c-0.63-1.095-1.746-1.428-2.12-1.511
	c-0.429-0.146-1.623-0.41-4.654-0.41c-0.008,0-0.015,0-0.021,0c-4.566,0.001-5.48,2.248-5.552,2.458l-2.824,6.979
	c-1.157,0.965-2.094,2.281-2.622,3.974c-1.437,4.062-4.83,12.757-4.864,12.844c-0.201,0.515,0.054,1.094,0.568,1.295
	c0.512,0.2,1.094-0.053,1.295-0.568c0.031-0.08,2.827-7.244,4.436-11.661c1.226-1.229,3.882-2.145,6.215-1.98
	c1.688,0.12,3.167,0.793,3.77,1.716c0.178,0.272,0.274,0.568,0.308,0.887c-1.449,4.387-3.288,10.306-3.31,10.378
	c-0.164,0.527,0.131,1.088,0.658,1.251c0.1,0.031,0.199,0.045,0.297,0.045c0.427,0,0.822-0.275,0.955-0.704
	c0.027-0.087,2.72-8.756,4.16-12.896c0.167-0.585,0.21-1.152,0.18-1.7c0.043,0,0.078,0.003,0.122,0.003
	c2.005,0,5.407-0.48,6.238-3.62c0.637-2.401,1.096-4.137,0.135-5.38C28.07,49.197,27.037,48.813,25.376,48.751z M15.268,58.502
	c-1.758-0.124-3.761,0.277-5.385,1.057c1.68-3.26,5.385-3.869,7.741-3.165c0.761,0.228,3.184,1.168,2.469,3.677
	c-0.054,0.154-0.112,0.326-0.169,0.492C18.818,59.223,16.841,58.613,15.268,58.502z M26.599,54.873
	c-0.574,2.167-3.779,2.164-5.013,2.079c-0.659-1.122-1.818-2.006-3.388-2.475c-1.688-0.505-3.563-0.477-5.289,0.086l1.902-4.701
	c0.006-0.012,0.604-1.206,3.698-1.207c0.008,0,0.015,0,0.021,0c3.081,0,3.939,0.278,3.951,0.278v0
	c0.076,0.037,0.173,0.066,0.256,0.082c0.006,0.001,0.588,0.118,0.839,0.569c0.274,0.493,0.083,1.245-0.126,1.789
	c-0.198,0.516,0.06,1.094,0.575,1.292c0.515,0.197,1.095-0.06,1.292-0.575c0.179-0.467,0.275-0.901,0.333-1.32
	c0.979,0.078,1.332,0.29,1.442,0.431C27.449,51.663,27.039,53.209,26.599,54.873z M75.051,62.718L67.596,35.38
	c-0.119-0.435-0.514-0.737-0.965-0.737H41.314c-0.451,0-0.846,0.302-0.965,0.737l-7.455,27.338c-0.082,0.301-0.019,0.623,0.17,0.87
	c0.189,0.248,0.483,0.393,0.795,0.393h20.914c1.395,4.259,3.031,9.523,3.052,9.59c0.133,0.429,0.528,0.704,0.955,0.704
	c0.098,0,0.198-0.015,0.297-0.045c0.527-0.164,0.822-0.724,0.658-1.251c-0.023-0.072-1.87-6.018-3.31-10.377
	c0.034-0.319,0.13-0.615,0.308-0.888c0.603-0.923,2.082-1.596,3.771-1.716c2.322-0.165,4.984,0.752,6.213,1.981
	c1.6,4.388,4.406,11.58,4.437,11.66c0.201,0.515,0.782,0.768,1.295,0.568c0.515-0.201,0.77-0.781,0.568-1.295
	c-0.025-0.065-1.882-4.823-3.426-8.93h4.495c0.312,0,0.605-0.146,0.795-0.393C75.069,63.34,75.133,63.018,75.051,62.718z
	 M50.013,50.768c0.058,0.419,0.153,0.854,0.333,1.322c0.005,0.013,0.016,0.021,0.022,0.034c0.109,0.273,0.322,0.502,0.626,0.594
	c0.097,0.029,0.193,0.043,0.289,0.043c0.43,0,0.827-0.279,0.957-0.711l0.938-3.108c0.202-0.059,1.163-0.286,3.957-0.286
	c0.006,0,0.014,0,0.021,0c3.095,0.001,3.692,1.194,3.698,1.208l1.902,4.702c-1.726-0.566-3.601-0.593-5.289-0.088
	c-1.57,0.469-2.729,1.353-3.385,2.481c-1.233,0.099-4.514,0.149-5.007-2.049l-0.123-0.542c-0.329-1.441-0.64-2.803-0.321-3.199
	C48.714,51.062,49.021,50.845,50.013,50.768z M60.397,58.502c-1.575,0.112-3.552,0.722-4.658,2.062
	c-0.05-0.147-0.103-0.302-0.151-0.438c-0.732-2.563,1.69-3.504,2.451-3.731c2.349-0.703,6.039-0.099,7.735,3.161
	C64.151,58.776,62.15,58.375,60.397,58.502z M68.845,61.981c-0.254-0.689-0.487-1.33-0.681-1.879
	c-0.532-1.705-1.472-3.029-2.63-3.999l-2.811-6.944c-0.089-0.256-1.003-2.503-5.569-2.504c-0.007,0-0.014,0-0.021,0
	c-1.523,0-2.581,0.067-3.313,0.152l1.605-5.32c0.16-0.529-0.14-1.087-0.668-1.247c-0.531-0.157-1.087,0.14-1.246,0.668l-1.967,6.517
	c-0.414,0.23-0.864,0.589-1.188,1.151c-0.03,0.053-0.042,0.114-0.069,0.169c-1.205,0.038-2.49,0.258-3.222,1.173
	c-0.921,1.15-0.563,2.721-0.067,4.895l0.122,0.535c0.706,3.142,3.987,3.653,6.047,3.653c0.117,0,0.216-0.005,0.325-0.008
	c-0.029,0.557,0.016,1.135,0.188,1.735c0.132,0.378,0.277,0.806,0.427,1.252H35.168l6.909-25.338h23.79l6.909,25.338H68.845z
	 M1,26.771h33.524c0.007,0.001,0.015,0,0.02,0c0.553,0,1-0.448,1-1c0-0.232-0.079-0.446-0.212-0.616l-6.131-11.931
	c-0.172-0.333-0.515-0.543-0.89-0.543H7.213c-0.375,0-0.718,0.209-0.89,0.543L0.11,25.314c-0.159,0.31-0.146,0.681,0.036,0.978
	S0.651,26.771,1,26.771z M7.823,14.681h19.878l5.185,10.09H2.639L7.823,14.681z M0,28.374c0-0.552,0.447-1,1-1h33.524
	c0.553,0,1,0.448,1,1s-0.447,1-1,1H1C0.447,29.374,0,28.926,0,28.374z M0,30.977c0-0.552,0.447-1,1-1h33.524c0.553,0,1,0.448,1,1
	s-0.447,1-1,1H1C0.447,31.977,0,31.53,0,30.977z M0,33.58c0-0.552,0.447-1,1-1h33.524c0.553,0,1,0.448,1,1s-0.447,1-1,1H1
	C0.447,34.58,0,34.133,0,33.58z M0,36.183c0-0.552,0.447-1,1-1h33.524c0.553,0,1,0.448,1,1s-0.447,1-1,1H1
	C0.447,37.183,0,36.736,0,36.183z M0,38.786c0-0.552,0.447-1,1-1h33.524c0.553,0,1,0.448,1,1s-0.447,1-1,1H1
	C0.447,39.786,0,39.339,0,38.786z M0,41.39c0-0.552,0.447-1,1-1h33.524c0.553,0,1,0.448,1,1s-0.447,1-1,1H1
	C0.447,42.39,0,41.942,0,41.39z M34.524,44.993H1c-0.553,0-1-0.448-1-1s0.447-1,1-1h33.524c0.553,0,1,0.448,1,1
	S35.077,44.993,34.524,44.993z M64.736,27.311c0.553,0,1,0.448,1,1s-0.447,1-1,1H45.473c-0.553,0-1-0.448-1-1s0.447-1,1-1H64.736z
	 M50.399,1.811c0-0.552,0.447-1,1-1h7.412c0.553,0,1,0.448,1,1s-0.447,1-1,1h-7.412C50.846,2.811,50.399,2.363,50.399,1.811z
	 M43.149,26.656h23.912c0.553,0,1-0.448,1-1V4.482c0-0.552-0.447-1-1-1H43.149c-0.553,0-1,0.448-1,1v21.174
	C42.149,26.208,42.596,26.656,43.149,26.656z M44.149,5.482h21.912v19.174H44.149V5.482z M55.105,6.632
	c-4.652,0-8.438,3.785-8.438,8.438s3.785,8.438,8.438,8.438s8.438-3.785,8.438-8.438S59.757,6.632,55.105,6.632z M55.105,21.507
	c-3.55,0-6.438-2.888-6.438-6.438s2.888-6.438,6.438-6.438s6.438,2.888,6.438,6.438S58.654,21.507,55.105,21.507z M59.648,12.586
	c0.302,0.462,0.173,1.082-0.289,1.384l-3.706,2.427c-0.168,0.11-0.358,0.164-0.548,0.164c-0.275,0-0.549-0.114-0.744-0.332
	l-1.815-2.022c-0.369-0.411-0.335-1.043,0.076-1.412c0.41-0.368,1.043-0.336,1.412,0.076l1.242,1.383l2.987-1.956
	C58.726,11.994,59.345,12.125,59.648,12.586z M28.968,21.781c0,0.552-0.447,1-1,1h-5.082c-0.553,0-1-0.448-1-1s0.447-1,1-1h5.082
	C28.521,20.781,28.968,21.229,28.968,21.781z"/>
<g>
</g>
<g>
</g>
<g>
</g>
<g>
</g>
<g>
</g>
<g>
</g>
<g>
</g>
<g>
</g>
<g>
</g>
<g>
</g>
<g>
</g>
<g>
</g>
<g>
</g>
<g>
</g>
<g>
</g>
</svg>
