<?xml version="1.0" encoding="iso-8859-1"?>
<!-- Generator: Adobe Illustrator 18.0.0, SVG Export Plug-In . SVG Version: 6.00 Build 0)  -->
<!DOCTYPE svg PUBLIC "-//W3C//DTD SVG 1.1//EN" "http://www.w3.org/Graphics/SVG/1.1/DTD/svg11.dtd">
<svg version="1.1" id="Capa_1" xmlns="http://www.w3.org/2000/svg" xmlns:xlink="http://www.w3.org/1999/xlink" x="0px" y="0px"
	 viewBox="0 0 73.041 73.041" style="enable-background:new 0 0 73.041 73.041;" xml:space="preserve">
<path style="fill:#231F20;" d="M50.915,38.682l-0.369,5.758c-0.021,0.33-0.204,0.628-0.488,0.796c-0.157,0.093-0.333,0.14-0.51,0.14
	c-0.145,0-0.289-0.031-0.424-0.094l-4.782-2.236c-0.5-0.234-0.716-0.829-0.482-1.329c0.234-0.5,0.826-0.715,1.33-0.482l3.454,1.615
	l0.275-4.295c0.035-0.551,0.498-0.973,1.063-0.934C50.532,37.655,50.95,38.13,50.915,38.682z M27.486,41.262l-3.449,1.626
	l-0.289-4.295c-0.037-0.55-0.486-0.977-1.065-0.93c-0.551,0.037-0.968,0.514-0.931,1.065l0.388,5.757
	c0.022,0.33,0.206,0.627,0.491,0.794c0.156,0.092,0.331,0.138,0.507,0.138c0.146,0,0.291-0.032,0.427-0.095l4.775-2.25
	c0.499-0.236,0.713-0.832,0.478-1.331C28.583,41.241,27.99,41.027,27.486,41.262z M52.315,18.197
	c-1.447-0.548-2.929,0.934-3.211,1.236c-0.377,0.404-0.355,1.037,0.048,1.414c0.401,0.375,1.034,0.356,1.413-0.047
	c0.332-0.355,0.889-0.726,0.998-0.758c0.002,0.002,0.258,0.262,0.294,1.496c0.107,3.65-2.681,4.669-2.793,4.708
	c-0.315,0.105-0.558,0.36-0.647,0.681l-0.046,0.165c-0.017,0.061-0.027,0.122-0.032,0.185c-0.81,9.646-8.438,12.767-12.005,12.767
	s-11.196-3.121-12.006-12.767c-0.005-0.063-0.016-0.124-0.032-0.185l-0.046-0.165c-0.088-0.315-0.332-0.57-0.641-0.678
	c-0.119-0.042-2.907-1.061-2.8-4.711c0.032-1.1,0.239-1.426,0.225-1.459c0.209,0.014,0.729,0.363,1.067,0.722
	c0.379,0.404,1.012,0.424,1.413,0.047c0.403-0.377,0.425-1.01,0.048-1.414c-0.282-0.302-1.765-1.786-3.211-1.236
	c-1.461,0.552-1.521,2.606-1.542,3.282c-0.106,3.634,2.035,5.644,3.568,6.416c1.039,9.754,8.732,14.148,13.956,14.148
	s12.916-4.395,13.955-14.148c1.533-0.771,3.675-2.782,3.568-6.416C53.837,20.804,53.776,18.749,52.315,18.197z M18.755,57.803
	c-0.107,0.461-0.519,0.772-0.973,0.772c-0.075,0-0.152-0.008-0.229-0.026l-1.485-0.347l0.936,7.799l0.177,0.122
	c0.455,0.313,0.57,0.936,0.258,1.391c-0.194,0.282-0.507,0.433-0.825,0.433c-0.195,0-0.393-0.057-0.565-0.176l-5.776-3.975
	l-7.459,7.283c-0.194,0.19-0.446,0.285-0.698,0.285c-0.26,0-0.52-0.101-0.716-0.301c-0.386-0.396-0.378-1.028,0.018-1.414
	l0.371-0.362l2.444-14.699l-1.81-0.696c-0.515-0.198-0.772-0.777-0.574-1.292c0.092-0.239,0.27-0.414,0.48-0.523l1.178-22.005
	c-0.598-0.266-1.152-0.632-1.628-1.11c-1.013-1.016-1.568-2.365-1.566-3.799c0.005-2.957,2.414-5.361,5.37-5.361l6.461,0.01
	l0.675-0.001c1.125,0,2.825,0,3.996,1.173c0.881,0.882,1.307,2.258,1.304,4.208c-0.004,2.426-0.699,3.748-1.625,4.476l1.734,27.035
	C18.626,56.905,18.862,57.346,18.755,57.803z M3.295,27.549c0.289,0.29,0.625,0.512,0.986,0.677l0.003-1.97
	c0.001-0.553,0.47-0.982,1.002-0.999c0.552,0.001,0.999,0.449,0.998,1.001l-0.003,2.281l1.622,0.003l0.003-2.282
	c0.001-0.552,0.448-0.999,1-0.999c0.001,0,0.001,0,0.002,0c0.552,0.001,0.999,0.449,0.998,1.001l-0.003,2.283l1.752,0.003
	l0.003-2.284c0.001-0.552,0.448-0.999,1-0.999c0.001,0,0.001,0,0.002,0c0.552,0.001,0.999,0.449,0.998,1.001l-0.003,2.273
	c1.462-0.056,2.458-0.459,2.462-3.357c0.002-1.372-0.239-2.312-0.719-2.792c-0.542-0.542-1.489-0.586-2.581-0.586l-0.618,0.001
	L5.687,21.8c-1.86,0-3.372,1.509-3.375,3.364C2.311,26.065,2.659,26.912,3.295,27.549z M11.876,50.244
	c0-0.945-0.769-1.714-1.714-1.714s-1.714,0.769-1.714,1.714s0.769,1.713,1.714,1.713S11.876,51.189,11.876,50.244z M11.162,55.003
	l3.618,0.845l-3.036-25.296l-2.502-0.005L5.519,52.939l3.643,1.401v-0.536c-1.56-0.44-2.714-1.861-2.714-3.559
	c0-2.048,1.666-3.714,3.714-3.714s3.714,1.666,3.714,3.714c0,1.699-1.154,3.119-2.714,3.559V55.003z M4.566,52.572l3.662-22.028
	L5.673,30.54c-0.404-0.001-0.798-0.056-1.183-0.143l-1.162,21.7L4.566,52.572z M9.162,62.085v-5.602l-3.978-1.53L2.998,68.105
	L9.162,62.085z M15.033,57.96l-3.871-0.904v4.925l4.746,3.266L15.033,57.96z M15.815,56.089l1.39,0.325l-1.681-26.209
	c-0.911,0.343-1.886,0.349-2.612,0.349l-0.161,0L15.815,56.089z M71.193,52.599c0.198,0.516-0.06,1.094-0.574,1.292l-2.279,0.876
	l1.347,15.132l0.398,0.53c0.331,0.442,0.242,1.068-0.199,1.4c-0.18,0.135-0.391,0.201-0.6,0.201c-0.304,0-0.604-0.138-0.801-0.399
	l-5.673-7.547l-6.142,6.903c-0.197,0.222-0.472,0.335-0.747,0.335c-0.237,0-0.475-0.083-0.665-0.253
	c-0.412-0.367-0.449-1-0.082-1.412l0.377-0.423l1.658-13.545l-1.938-0.385c-0.541-0.108-0.894-0.634-0.785-1.176
	c0.062-0.315,0.27-0.551,0.536-0.685l1.526-23.778c-0.927-0.728-1.623-2.05-1.626-4.477c-0.003-1.949,0.424-3.326,1.305-4.208
	c1.171-1.173,2.871-1.173,3.996-1.173l0.617,0.001l6.51-0.01c2.966,0,5.374,2.405,5.378,5.362c0.002,1.181-0.393,2.293-1.092,3.22
	L70.79,52.131C70.963,52.242,71.113,52.392,71.193,52.599z M56.924,25.187c0.004,2.898,1.001,3.301,2.462,3.357l-0.003-2.273
	c-0.001-0.552,0.446-1,0.998-1.001c0.001,0,0.002,0,0.002,0c0.552,0,0.999,0.447,1,0.999l0.003,2.284l1.753-0.003l-0.003-2.283
	c-0.001-0.552,0.446-1,0.998-1.001c0.001,0,0.002,0,0.002,0c0.552,0,0.999,0.447,1,0.999l0.004,2.282l1.621-0.003l-0.003-2.281
	c-0.001-0.552,0.446-1,0.998-1.001c0.001,0,0.002,0,0.002,0c0.552,0,0.999,0.447,1,0.999l0.003,1.97
	c0.361-0.166,0.698-0.388,0.986-0.677c0.636-0.638,0.984-1.484,0.983-2.385C70.728,23.31,69.216,21.8,67.36,21.8l-6.458,0.01
	l-0.678-0.001c-1.092,0-2.04,0.044-2.581,0.586C57.164,22.875,56.922,23.814,56.924,25.187z M64.593,50.244
	c0-0.945-0.769-1.714-1.714-1.714c-0.944,0-1.713,0.769-1.713,1.714s0.769,1.713,1.713,1.713
	C63.824,51.958,64.593,51.189,64.593,50.244z M63.879,54.34l3.306-1.272L65.18,30.544l-3.885,0.008l-2.857,23.342l3.441,0.684
	v-0.774c-1.56-0.44-2.713-1.861-2.713-3.559c0-2.048,1.666-3.714,3.713-3.714c2.048,0,3.714,1.666,3.714,3.714
	c0,1.699-1.154,3.119-2.714,3.559V54.34z M57.455,53.698l2.833-23.145l-0.159,0c-0.004,0-0.009,0-0.013,0
	c-0.725,0-1.693-0.008-2.599-0.348l-1.49,23.209L57.455,53.698z M56.721,67.922l5.158-5.796v-5.509l-3.685-0.732L56.721,67.922z
	 M67.37,55.141l-3.491,1.342v5.689l4.67,6.212L67.37,55.141z M68.156,52.695l1.635-0.629l0.808-22.64
	c-0.928,0.709-2.044,1.112-3.231,1.113l-1.184,0.002L68.156,52.695z M20.585,15.234c0-7.489,0-15.234,15.656-15.234
	s15.656,7.745,15.656,15.234c0,0.552-0.447,1-1,1H21.585C21.032,16.234,20.585,15.786,20.585,15.234z M40.373,13.394
	c0-0.476-0.388-0.863-0.863-0.863h-6.537c-0.476,0-0.863,0.387-0.863,0.863v0.84h8.264V13.394z M22.586,14.234h7.523v-0.84
	c0-1.579,1.284-2.863,2.863-2.863h6.537c1.579,0,2.863,1.285,2.863,2.863v0.84h7.523C49.869,7.32,49.275,2,36.241,2
	S22.613,7.32,22.586,14.234z M36.448,43.417c-0.553,0-1,0.448-1,1v27.624c0,0.552,0.447,1,1,1s1-0.448,1-1V44.417
	C37.448,43.865,37.001,43.417,36.448,43.417z"/>
<g>
</g>
<g>
</g>
<g>
</g>
<g>
</g>
<g>
</g>
<g>
</g>
<g>
</g>
<g>
</g>
<g>
</g>
<g>
</g>
<g>
</g>
<g>
</g>
<g>
</g>
<g>
</g>
<g>
</g>
</svg>
